  0
SECTION
  2
HEADER
  9
$ACADVER
  1
AC1009
  9
$DWGCODEPAGE
  3
ansi_1252
  9
$INSBASE
 10
0.0
 20
0.0
 30
0.0
  9
$EXTMIN
 10
1.000000000000000E+20
 20
1.000000000000000E+20
 30
1.000000000000000E+20
  9
$EXTMAX
 10
-1.000000000000000E+20
 20
-1.000000000000000E+20
 30
-1.000000000000000E+20
  9
$LIMMIN
 10
0.0
 20
0.0
  9
$LIMMAX
 10
12.0
 20
9.0
  9
$ORTHOMODE
 70
     0
  9
$REGENMODE
 70
     1
  9
$FILLMODE
 70
     1
  9
$QTEXTMODE
 70
     0
  9
$MIRRTEXT
 70
     1
  9
$DRAGMODE
 70
     2
  9
$LTSCALE
 40
1.0
  9
$OSMODE
 70
    37
  9
$ATTMODE
 70
     1
  9
$TEXTSIZE
 40
0.2
  9
$TRACEWID
 40
0.05
  9
$TEXTSTYLE
  7
STANDARD
  9
$CLAYER
  8
0
  9
$CELTYPE
  6
BYLAYER
  9
$CECOLOR
 62
   256
  9
$DIMSCALE
 40
1.0
  9
$DIMASZ
 40
0.18
  9
$DIMEXO
 40
0.0625
  9
$DIMDLI
 40
0.38
  9
$DIMRND
 40
0.0
  9
$DIMDLE
 40
0.0
  9
$DIMEXE
 40
0.18
  9
$DIMTP
 40
0.0
  9
$DIMTM
 40
0.0
  9
$DIMTXT
 40
0.18
  9
$DIMCEN
 40
0.09
  9
$DIMTSZ
 40
0.0
  9
$DIMTOL
 70
     0
  9
$DIMLIM
 70
     0
  9
$DIMTIH
 70
     1
  9
$DIMTOH
 70
     1
  9
$DIMSE1
 70
     0
  9
$DIMSE2
 70
     0
  9
$DIMTAD
 70
     0
  9
$DIMZIN
 70
     0
  9
$DIMBLK
  1

  9
$DIMASO
 70
     1
  9
$DIMSHO
 70
     1
  9
$DIMPOST
  1

  9
$DIMAPOST
  1

  9
$DIMALT
 70
     0
  9
$DIMALTD
 70
     2
  9
$DIMALTF
 40
25.4
  9
$DIMLFAC
 40
1.0
  9
$DIMTOFL
 70
     0
  9
$DIMTVP
 40
0.0
  9
$DIMTIX
 70
     0
  9
$DIMSOXD
 70
     0
  9
$DIMSAH
 70
     0
  9
$DIMBLK1
  1

  9
$DIMBLK2
  1

  9
$DIMSTYLE
  2
STANDARD_ACAD
  9
$DIMCLRD
 70
     0
  9
$DIMCLRE
 70
     0
  9
$DIMCLRT
 70
     0
  9
$DIMTFAC
 40
1.0
  9
$DIMGAP
 40
0.09
  9
$LUNITS
 70
     2
  9
$LUPREC
 70
     1
  9
$SKETCHINC
 40
0.1
  9
$FILLETRAD
 40
0.5
  9
$AUNITS
 70
     0
  9
$AUPREC
 70
     0
  9
$MENU
  1
.
  9
$ELEVATION
 40
0.0
  9
$PELEVATION
 40
0.0
  9
$THICKNESS
 40
0.0
  9
$LIMCHECK
 70
     0
  9
$CHAMFERA
 40
0.0
  9
$CHAMFERB
 40
0.0
  9
$SKPOLY
 70
     0
  9
$TDCREATE
 40
2459114.830691412
  9
$TDUPDATE
 40
2459114.830691516
  9
$TDINDWG
 40
0.0000000116
  9
$TDUSRTIMER
 40
0.0000000116
  9
$USRTIMER
 70
     1
  9
$ANGBASE
 50
0.0
  9
$ANGDIR
 70
     0
  9
$PDMODE
 70
     0
  9
$PDSIZE
 40
0.0
  9
$PLINEWID
 40
0.0
  9
$COORDS
 70
     1
  9
$SPLFRAME
 70
     0
  9
$SPLINETYPE
 70
     6
  9
$SPLINESEGS
 70
     8
  9
$ATTDIA
 70
     0
  9
$ATTREQ
 70
     1
  9
$HANDLING
 70
     1
  9
$HANDSEED
  5
3CF
  9
$SURFTAB1
 70
     6
  9
$SURFTAB2
 70
     6
  9
$SURFTYPE
 70
     6
  9
$SURFU
 70
     6
  9
$SURFV
 70
     6
  9
$UCSNAME
  2

  9
$UCSORG
 10
0.0
 20
0.0
 30
0.0
  9
$UCSXDIR
 10
1.0
 20
0.0
 30
0.0
  9
$UCSYDIR
 10
0.0
 20
1.0
 30
0.0
  9
$PUCSNAME
  2

  9
$PUCSORG
 10
0.0
 20
0.0
 30
0.0
  9
$PUCSXDIR
 10
1.0
 20
0.0
 30
0.0
  9
$PUCSYDIR
 10
0.0
 20
1.0
 30
0.0
  9
$USERI1
 70
     0
  9
$USERI2
 70
     0
  9
$USERI3
 70
     0
  9
$USERI4
 70
     0
  9
$USERI5
 70
     0
  9
$USERR1
 40
0.0
  9
$USERR2
 40
0.0
  9
$USERR3
 40
0.0
  9
$USERR4
 40
0.0
  9
$USERR5
 40
0.0
  9
$WORLDVIEW
 70
     1
  9
$SHADEDGE
 70
     3
  9
$SHADEDIF
 70
    70
  9
$TILEMODE
 70
     1
  9
$MAXACTVP
 70
    64
  9
$PLIMCHECK
 70
     0
  9
$PEXTMIN
 10
1.000000000000000E+20
 20
1.000000000000000E+20
 30
1.000000000000000E+20
  9
$PEXTMAX
 10
-1.000000000000000E+20
 20
-1.000000000000000E+20
 30
-1.000000000000000E+20
  9
$PLIMMIN
 10
0.0
 20
0.0
  9
$PLIMMAX
 10
12.0
 20
9.0
  9
$UNITMODE
 70
     0
  9
$VISRETAIN
 70
     1
  9
$PLINEGEN
 70
     0
  9
$PSLTSCALE
 70
     1
  0
ENDSEC
  0
SECTION
  2
TABLES
  0
TABLE
  2
VPORT
 70
     1
  0
VPORT
  2
*ACTIVE
 70
     0
 10
0.0
 20
0.0
 11
1.0
 21
1.0
 12
10.42990654205607
 22
4.5
 13
0.0
 23
0.0
 14
0.5
 24
0.5
 15
0.5
 25
0.5
 16
0.0
 26
0.0
 36
1.0
 17
0.0
 27
0.0
 37
0.0
 40
9.0
 41
1.972972972850329
 42
50.0
 43
0.0
 44
0.0
 50
0.0
 51
0.0
 71
     0
 72
   100
 73
     1
 74
     3
 75
     0
 76
     0
 77
     0
 78
     0
  0
ENDTAB
  0
TABLE
  2
LTYPE
 70
     1
  0
LTYPE
  2
CONTINUOUS
 70
     0
  3
Solid line
 72
    65
 73
     0
 40
0.0
  0
ENDTAB
  0
TABLE
  2
LAYER
 70
     3
  0
LAYER
  2
0
 70
     0
 62
     7
  6
CONTINUOUS
  0
LAYER
  2
LAYER_03
 70
     0
 62
    40
  6
CONTINUOUS
  0
LAYER
  2
LAYER_02
 70
     0
 62
    96
  6
CONTINUOUS
  0
ENDTAB
  0
TABLE
  2
STYLE
 70
     1
  0
STYLE
  2
STANDARD
 70
     0
 40
0.0
 41
1.0
 50
0.0
 71
     0
 42
0.2
  3
txt
  4

  0
ENDTAB
  0
TABLE
  2
VIEW
 70
     0
  0
ENDTAB
  0
TABLE
  2
UCS
 70
     0
  0
ENDTAB
  0
TABLE
  2
APPID
 70
     1
  0
APPID
  2
ACAD
 70
     0
  0
ENDTAB
  0
TABLE
  2
DIMSTYLE
 70
     1
  0
DIMSTYLE
  2
STANDARD_ACAD
 70
     0
  3

  4

  5

  6

  7

 40
1.0
 41
0.18
 42
0.0625
 43
0.38
 44
0.18
 45
0.0
 46
0.0
 47
0.0
 48
0.0
140
0.18
141
0.09
142
0.0
143
25.4
144
1.0
145
0.0
146
1.0
147
0.09
 71
     0
 72
     0
 73
     1
 74
     1
 75
     0
 76
     0
 77
     0
 78
     0
170
     0
171
     2
172
     0
173
     0
174
     0
175
     0
176
     0
177
     0
178
     0
  0
ENDTAB
  0
ENDSEC
  0
SECTION
  2
BLOCKS
  0
BLOCK
  8
0
  2
$MODEL_SPACE
 70
     0
 10
0.0
 20
0.0
 30
0.0
  3
$MODEL_SPACE
  1

  0
ENDBLK
  5
21
  8
0
  0
BLOCK
 67
     1
  8
0
  2
$PAPER_SPACE
 70
     0
 10
0.0
 20
0.0
 30
0.0
  3
$PAPER_SPACE
  1

  0
ENDBLK
  5
1D
 67
     1
  8
0
  0
ENDSEC
  0
SECTION
  2
ENTITIES
  0
POLYLINE
  5
6F
  8
LAYER_03
 66
     1
 10
0.0
 20
0.0
 30
0.0
 70
     1
  0
VERTEX
  5
70
  8
LAYER_03
 10
211.301020408162
 20
-4.017219269507549
 30
0.0
  0
VERTEX
  5
71
  8
LAYER_03
 10
110.8668367346937
 20
-4.017219269507493
 30
0.0
 42
-0.4141762469448265
  0
VERTEX
  5
72
  8
LAYER_03
 10
106.2757653061065
 20
0.5746174651786847
 30
0.0
  0
VERTEX
  5
73
  8
LAYER_03
 10
106.2757653061052
 20
101.8681123631378
 30
0.0
 42
-0.4141647419258263
  0
VERTEX
  5
74
  8
LAYER_03
 10
110.8668367346938
 20
106.4599490978317
 30
0.0
  0
VERTEX
  5
75
  8
LAYER_03
 10
211.3010204081621
 20
106.4599490978318
 30
0.0
 42
-0.4142135510790644
  0
VERTEX
  5
76
  8
LAYER_03
 10
215.8941326530621
 20
101.8681123631379
 30
0.0
  0
VERTEX
  5
77
  8
LAYER_03
 10
215.8941326530624
 20
0.5746174651786417
 30
0.0
 42
-0.4142250561210438
  0
SEQEND
  5
78
  8
LAYER_03
  0
POLYLINE
  5
79
  8
LAYER_03
 66
     1
 10
0.0
 20
0.0
 30
0.0
 70
     1
  0
VERTEX
  5
7A
  8
LAYER_03
 10
221.4835127512342
 20
-4.017218965686126
 30
0.0
  0
VERTEX
  5
7B
  8
LAYER_03
 10
321.9183673469379
 20
-4.017219269507549
 30
0.0
 42
0.4143401314147377
  0
VERTEX
  5
7C
  8
LAYER_03
 10
326.5102040816308
 20
0.5746174651786422
 30
0.0
  0
VERTEX
  5
7D
  8
LAYER_03
 10
326.5102040816309
 20
101.8681123631378
 30
0.0
 42
0.4143286263732187
  0
VERTEX
  5
7E
  8
LAYER_03
 10
321.9183673469379
 20
106.4599490978318
 30
0.0
  0
VERTEX
  5
7F
  8
LAYER_03
 10
221.4835812528314
 20
106.4599488282373
 30
0.0
 42
0.4140612101725236
  0
VERTEX
  5
80
  8
LAYER_03
 10
216.8941326530622
 20
101.8681123631378
 30
0.0
  0
VERTEX
  5
81
  8
LAYER_03
 10
216.8941326530631
 20
0.5746174651786333
 30
0.0
 42
0.4140683378031722
  0
SEQEND
  5
82
  8
LAYER_03
  0
POLYLINE
  5
83
  8
LAYER_03
 66
     1
 10
0.0
 20
0.0
 30
0.0
 70
     1
  0
VERTEX
  5
84
  8
LAYER_03
 10
5.700765308716695
 20
104.9541442537024
 30
0.0
 42
0.4141918764909825
  0
VERTEX
  5
85
  8
LAYER_03
 10
4.19489795918569
 20
106.4599490978308
 30
0.0
  0
VERTEX
  5
86
  8
LAYER_03
 10
0.2492346938749108
 20
106.4599490978317
 30
0.0
 42
0.4141349938284435
  0
VERTEX
  5
87
  8
LAYER_03
 10
-4.34260204081874
 20
101.8681123631379
 30
0.0
  0
VERTEX
  5
88
  8
LAYER_03
 10
-4.342602040817074
 20
0.5746174651786057
 30
0.0
 42
0.4141465030023462
  0
VERTEX
  5
89
  8
LAYER_03
 10
0.2492346938748844
 20
-4.017219269507489
 30
0.0
  0
VERTEX
  5
8A
  8
LAYER_03
 10
100.6830357142863
 20
-4.017219269507489
 30
0.0
 42
0.4142250650596296
  0
VERTEX
  5
8B
  8
LAYER_03
 10
105.2755102040833
 20
0.5746174651786715
 30
0.0
  0
VERTEX
  5
8C
  8
LAYER_03
 10
105.2755102040829
 20
101.8681123631379
 30
0.0
 42
0.4142135595500893
  0
VERTEX
  5
8D
  8
LAYER_03
 10
100.6830357142862
 20
106.4599490978319
 30
0.0
  0
VERTEX
  5
8E
  8
LAYER_03
 10
19.25943877550873
 20
106.4599490978314
 30
0.0
 42
0.4136368928054484
  0
VERTEX
  5
8F
  8
LAYER_03
 10
17.75242346679808
 20
104.9541442537023
 30
0.0
  0
VERTEX
  5
90
  8
LAYER_03
 10
17.75242346938897
 20
100.9364797100767
 30
0.0
 42
-0.4148198406712617
  0
VERTEX
  5
91
  8
LAYER_03
 10
16.24661862525684
 20
99.43073991156338
 30
0.0
  0
VERTEX
  5
92
  8
LAYER_03
 10
7.207845660454069
 20
99.43073991156338
 30
0.0
  0
VERTEX
  5
93
  8
LAYER_03
 10
7.174407838981067
 20
99.43108565470446
 30
0.0
  0
VERTEX
  5
94
  8
LAYER_03
 10
7.140686022526765
 20
99.43218681650103
 30
0.0
  0
VERTEX
  5
95
  8
LAYER_03
 10
7.106702289378824
 20
99.43406272743302
 30
0.0
  0
VERTEX
  5
96
  8
LAYER_03
 10
7.072479967928532
 20
99.43673202832095
 30
0.0
  0
VERTEX
  5
97
  8
LAYER_03
 10
7.0380436220753
 20
99.44021258429011
 30
0.0
  0
VERTEX
  5
98
  8
LAYER_03
 10
7.003419030288944
 20
99.44452139773107
 30
0.0
  0
VERTEX
  5
99
  8
LAYER_03
 10
6.968633158079342
 20
99.44967452074951
 30
0.0
  0
VERTEX
  5
9A
  8
LAYER_03
 10
6.933714123662319
 20
99.45568696763767
 30
0.0
  0
VERTEX
  5
9B
  8
LAYER_03
 10
6.898691156655159
 20
99.46257262793418
 30
0.0
  0
VERTEX
  5
9C
  8
LAYER_03
 10
6.86359454968498
 20
99.47034418067065
 30
0.0
  0
VERTEX
  5
9D
  8
LAYER_03
 10
6.828455602847728
 20
99.47901301043038
 30
0.0
  0
VERTEX
  5
9E
  8
LAYER_03
 10
6.793306561014752
 20
99.48858912586647
 30
0.0
  0
VERTEX
  5
9F
  8
LAYER_03
 10
6.758180544046964
 20
99.49908108134237
 30
0.0
  0
VERTEX
  5
A0
  8
LAYER_03
 10
6.723111470043056
 20
99.51049590236677
 30
0.0
  0
VERTEX
  5
A1
  8
LAYER_03
 10
6.688133971817416
 20
99.52283901549792
 30
0.0
  0
VERTEX
  5
A2
  8
LAYER_03
 10
6.653283306874279
 20
99.53611418338586
 30
0.0
  0
VERTEX
  5
A3
  8
LAYER_03
 10
6.618595261216615
 20
99.55032344560826
 30
0.0
  0
VERTEX
  5
A4
  8
LAYER_03
 10
6.584106047399984
 20
99.56546706593274
 30
0.0
  0
VERTEX
  5
A5
  8
LAYER_03
 10
6.549852197312332
 20
99.58154348660868
 30
0.0
  0
VERTEX
  5
A6
  8
LAYER_03
 10
6.51587045022916
 20
99.59854929025218
 30
0.0
  0
VERTEX
  5
A7
  8
LAYER_03
 10
6.482197636758573
 20
99.61647916984012
 30
0.0
  0
VERTEX
  5
A8
  8
LAYER_03
 10
6.448870559351308
 20
99.63532590727327
 30
0.0
  0
VERTEX
  5
A9
  8
LAYER_03
 10
6.415925870105918
 20
99.65508036090556
 30
0.0
  0
VERTEX
  5
AA
  8
LAYER_03
 10
6.383399946647567
 20
99.67573146236545
 30
0.0
  0
VERTEX
  5
AB
  8
LAYER_03
 10
6.351328766899608
 20
99.69726622291856
 30
0.0
  0
VERTEX
  5
AC
  8
LAYER_03
 10
6.319747783599286
 20
99.7196697495385
 30
0.0
  0
VERTEX
  5
AD
  8
LAYER_03
 10
6.288691799431759
 20
99.742925270766
 30
0.0
  0
VERTEX
  5
AE
  8
LAYER_03
 10
6.258194843669501
 20
99.76701417234685
 30
0.0
  0
VERTEX
  5
AF
  8
LAYER_03
 10
6.228290051206722
 20
99.79191604254679
 30
0.0
  0
VERTEX
  5
B0
  8
LAYER_03
 10
6.199009544870289
 20
99.81760872694991
 30
0.0
  0
VERTEX
  5
B1
  8
LAYER_03
 10
6.170384321869652
 20
99.84406839245494
 30
0.0
  0
VERTEX
  5
B2
  8
LAYER_03
 10
6.14244414521878
 20
99.87126960009458
 30
0.0
  0
VERTEX
  5
B3
  8
LAYER_03
 10
6.115217440923139
 20
99.89918538621771
 30
0.0
  0
VERTEX
  5
B4
  8
LAYER_03
 10
6.088731201674925
 20
99.92778735149275
 30
0.0
  0
VERTEX
  5
B5
  8
LAYER_03
 10
6.063010897740829
 20
99.95704575711609
 30
0.0
  0
VERTEX
  5
B6
  8
LAYER_03
 10
6.038080395659315
 20
99.9869296275423
 30
0.0
  0
VERTEX
  5
B7
  8
LAYER_03
 10
6.013961885289739
 20
100.0174068589931
 30
0.0
  0
VERTEX
  5
B8
  8
LAYER_03
 10
5.99067581567493
 20
100.0484443329527
 30
0.0
  0
VERTEX
  5
B9
  8
LAYER_03
 10
5.968240840093104
 20
100.0800080338172
 30
0.0
  0
VERTEX
  5
BA
  8
LAYER_03
 10
5.946673770585764
 20
100.1120631698347
 30
0.0
  0
VERTEX
  5
BB
  8
LAYER_03
 10
5.925989542156636
 20
100.1445742964556
 30
0.0
  0
VERTEX
  5
BC
  8
LAYER_03
 10
5.906201186744507
 20
100.1775054412033
 30
0.0
  0
VERTEX
  5
BD
  8
LAYER_03
 10
5.887319816980935
 20
100.2108202291766
 30
0.0
  0
VERTEX
  5
BE
  8
LAYER_03
 10
5.869354619654014
 20
100.2444820083117
 30
0.0
  0
VERTEX
  5
BF
  8
LAYER_03
 10
5.852312858712639
 20
100.2784539735489
 30
0.0
  0
VERTEX
  5
C0
  8
LAYER_03
 10
5.836199887563374
 20
100.3126992890868
 30
0.0
  0
VERTEX
  5
C1
  8
LAYER_03
 10
5.821019170335022
 20
100.3471812079429
 30
0.0
  0
VERTEX
  5
C2
  8
LAYER_03
 10
5.80677231171537
 20
100.3818631880911
 30
0.0
  0
VERTEX
  5
C3
  8
LAYER_03
 10
5.793459094900997
 20
100.416709004499
 30
0.0
  0
VERTEX
  5
C4
  8
LAYER_03
 10
5.781077527145197
 20
100.4516828564493
 30
0.0
  0
VERTEX
  5
C5
  8
LAYER_03
 10
5.769623892341354
 20
100.4867494695958
 30
0.0
  0
VERTEX
  5
C6
  8
LAYER_03
 10
5.759092810039867
 20
100.5218741922722
 30
0.0
  0
VERTEX
  5
C7
  8
LAYER_03
 10
5.749477300266054
 20
100.5570230856398
 30
0.0
  0
VERTEX
  5
C8
  8
LAYER_03
 10
5.740768853484347
 20
100.5921630073384
 30
0.0
  0
VERTEX
  5
C9
  8
LAYER_03
 10
5.732957505040369
 20
100.6272616883692
 30
0.0
  0
VERTEX
  5
CA
  8
LAYER_03
 10
5.726031913406862
 20
100.6622878030151
 30
0.0
  0
VERTEX
  5
CB
  8
LAYER_03
 10
5.719979441561429
 20
100.6972110316708
 30
0.0
  0
VERTEX
  5
CC
  8
LAYER_03
 10
5.714786240833302
 20
100.7320021165199
 30
0.0
  0
VERTEX
  5
CD
  8
LAYER_03
 10
5.710437336572111
 20
100.7666329100634
 30
0.0
  0
VERTEX
  5
CE
  8
LAYER_03
 10
5.706916715013267
 20
100.80107641656
 30
0.0
  0
VERTEX
  5
CF
  8
LAYER_03
 10
5.704207410741514
 20
100.8353068264928
 30
0.0
  0
VERTEX
  5
D0
  8
LAYER_03
 10
5.702291594185561
 20
100.8692995442313
 30
0.0
  0
VERTEX
  5
D1
  8
LAYER_03
 10
5.701150658611756
 20
100.9030312090959
 30
0.0
  0
SEQEND
  5
D2
  8
LAYER_03
  0
POLYLINE
  5
D4
  8
LAYER_02
 66
     1
 10
0.0
 20
0.0
 30
0.0
 70
     1
  0
VERTEX
  5
D5
  8
LAYER_02
 10
134.0918367346931
 20
57.28647959183787
 30
0.0
  0
VERTEX
  5
D6
  8
LAYER_02
 10
134.9107142857138
 20
57.28647959183787
 30
0.0
  0
VERTEX
  5
D7
  8
LAYER_02
 10
134.9107142857138
 20
58.27372448979715
 30
0.0
  0
VERTEX
  5
D8
  8
LAYER_02
 10
148.9719387755067
 20
58.27372448979715
 30
0.0
  0
VERTEX
  5
D9
  8
LAYER_02
 10
148.9719387755067
 20
57.28647959183787
 30
0.0
  0
VERTEX
  5
DA
  8
LAYER_02
 10
149.7908163265274
 20
57.28647959183787
 30
0.0
  0
VERTEX
  5
DB
  8
LAYER_02
 10
149.7908163265274
 20
53.76352040816438
 30
0.0
  0
VERTEX
  5
DC
  8
LAYER_02
 10
148.9719387755067
 20
53.76352040816438
 30
0.0
  0
VERTEX
  5
DD
  8
LAYER_02
 10
148.9719387755067
 20
48.72270408163378
 30
0.0
  0
VERTEX
  5
DE
  8
LAYER_02
 10
149.7908163265274
 20
48.72270408163378
 30
0.0
  0
VERTEX
  5
DF
  8
LAYER_02
 10
149.7908163265274
 20
45.19974489796029
 30
0.0
  0
VERTEX
  5
E0
  8
LAYER_02
 10
148.9719387755067
 20
45.19974489796029
 30
0.0
  0
VERTEX
  5
E1
  8
LAYER_02
 10
148.9719387755067
 20
44.21250000000101
 30
0.0
  0
VERTEX
  5
E2
  8
LAYER_02
 10
134.9107142857138
 20
44.21250000000101
 30
0.0
  0
VERTEX
  5
E3
  8
LAYER_02
 10
134.9107142857138
 20
45.19974489796029
 30
0.0
  0
VERTEX
  5
E4
  8
LAYER_02
 10
134.0918367346931
 20
45.19974489796029
 30
0.0
  0
VERTEX
  5
E5
  8
LAYER_02
 10
134.0918367346931
 20
48.72270408163378
 30
0.0
  0
VERTEX
  5
E6
  8
LAYER_02
 10
134.9107142857138
 20
48.72270408163378
 30
0.0
  0
VERTEX
  5
E7
  8
LAYER_02
 10
134.9107142857138
 20
53.76352040816438
 30
0.0
  0
VERTEX
  5
E8
  8
LAYER_02
 10
134.0918367346931
 20
53.76352040816438
 30
0.0
  0
SEQEND
  5
E9
  8
LAYER_02
  0
POLYLINE
  5
EA
  8
LAYER_02
 66
     1
 10
0.0
 20
0.0
 30
0.0
 70
     1
  0
VERTEX
  5
EB
  8
LAYER_02
 10
149.7908163265274
 20
76.36811224489908
 30
0.0
  0
VERTEX
  5
EC
  8
LAYER_02
 10
149.7908163265274
 20
72.84515306122559
 30
0.0
  0
VERTEX
  5
ED
  8
LAYER_02
 10
148.9719387755067
 20
72.84515306122559
 30
0.0
  0
VERTEX
  5
EE
  8
LAYER_02
 10
148.9719387755067
 20
67.80433673469499
 30
0.0
  0
VERTEX
  5
EF
  8
LAYER_02
 10
149.7908163265274
 20
67.80433673469499
 30
0.0
  0
VERTEX
  5
F0
  8
LAYER_02
 10
149.7908163265274
 20
64.28137755102149
 30
0.0
  0
VERTEX
  5
F1
  8
LAYER_02
 10
148.9719387755067
 20
64.28137755102149
 30
0.0
  0
VERTEX
  5
F2
  8
LAYER_02
 10
148.9719387755067
 20
63.29413265306245
 30
0.0
  0
VERTEX
  5
F3
  8
LAYER_02
 10
134.9107142857138
 20
63.29413265306245
 30
0.0
  0
VERTEX
  5
F4
  8
LAYER_02
 10
134.9107142857138
 20
64.28137755102149
 30
0.0
  0
VERTEX
  5
F5
  8
LAYER_02
 10
134.0918367346931
 20
64.28137755102149
 30
0.0
  0
VERTEX
  5
F6
  8
LAYER_02
 10
134.0918367346931
 20
67.80433673469499
 30
0.0
  0
VERTEX
  5
F7
  8
LAYER_02
 10
134.9107142857138
 20
67.80433673469499
 30
0.0
  0
VERTEX
  5
F8
  8
LAYER_02
 10
134.9107142857138
 20
72.84515306122559
 30
0.0
  0
VERTEX
  5
F9
  8
LAYER_02
 10
134.0918367346931
 20
72.84515306122559
 30
0.0
  0
VERTEX
  5
FA
  8
LAYER_02
 10
134.0918367346931
 20
76.36811224489908
 30
0.0
  0
VERTEX
  5
FB
  8
LAYER_02
 10
134.9107142857138
 20
76.36811224489908
 30
0.0
  0
VERTEX
  5
FC
  8
LAYER_02
 10
134.9107142857138
 20
77.35535714285835
 30
0.0
  0
VERTEX
  5
FD
  8
LAYER_02
 10
148.9719387755067
 20
77.35535714285835
 30
0.0
  0
VERTEX
  5
FE
  8
LAYER_02
 10
148.9719387755067
 20
76.36811224489908
 30
0.0
  0
SEQEND
  5
FF
  8
LAYER_02
  0
POLYLINE
  5
100
  8
LAYER_02
 66
     1
 10
0.0
 20
0.0
 30
0.0
 70
     1
  0
VERTEX
  5
101
  8
LAYER_02
 10
134.0918367346931
 20
95.44974489796029
 30
0.0
  0
VERTEX
  5
102
  8
LAYER_02
 10
134.9107142857138
 20
95.44974489796029
 30
0.0
  0
VERTEX
  5
103
  8
LAYER_02
 10
134.9107142857138
 20
96.43698979591956
 30
0.0
  0
VERTEX
  5
104
  8
LAYER_02
 10
148.9719387755067
 20
96.43698979591956
 30
0.0
  0
VERTEX
  5
105
  8
LAYER_02
 10
148.9719387755067
 20
95.44974489796029
 30
0.0
  0
VERTEX
  5
106
  8
LAYER_02
 10
149.7908163265274
 20
95.44974489796029
 30
0.0
  0
VERTEX
  5
107
  8
LAYER_02
 10
149.7908163265274
 20
91.92933673469499
 30
0.0
  0
VERTEX
  5
108
  8
LAYER_02
 10
148.9719387755067
 20
91.92933673469499
 30
0.0
  0
VERTEX
  5
109
  8
LAYER_02
 10
148.9719387755067
 20
86.88596938775619
 30
0.0
  0
VERTEX
  5
10A
  8
LAYER_02
 10
149.7908163265274
 20
86.88596938775619
 30
0.0
  0
VERTEX
  5
10B
  8
LAYER_02
 10
149.7908163265274
 20
83.36556122449089
 30
0.0
  0
VERTEX
  5
10C
  8
LAYER_02
 10
148.9719387755067
 20
83.36556122449089
 30
0.0
  0
VERTEX
  5
10D
  8
LAYER_02
 10
148.9719387755067
 20
82.37831632653184
 30
0.0
  0
VERTEX
  5
10E
  8
LAYER_02
 10
134.9107142857138
 20
82.37831632653184
 30
0.0
  0
VERTEX
  5
10F
  8
LAYER_02
 10
134.9107142857138
 20
83.36556122449089
 30
0.0
  0
VERTEX
  5
110
  8
LAYER_02
 10
134.0918367346931
 20
83.36556122449089
 30
0.0
  0
VERTEX
  5
111
  8
LAYER_02
 10
134.0918367346931
 20
86.88596938775619
 30
0.0
  0
VERTEX
  5
112
  8
LAYER_02
 10
134.9107142857138
 20
86.88596938775619
 30
0.0
  0
VERTEX
  5
113
  8
LAYER_02
 10
134.9107142857138
 20
91.92933673469499
 30
0.0
  0
VERTEX
  5
114
  8
LAYER_02
 10
134.0918367346931
 20
91.92933673469499
 30
0.0
  0
SEQEND
  5
115
  8
LAYER_02
  0
POLYLINE
  5
116
  8
LAYER_02
 66
     1
 10
0.0
 20
0.0
 30
0.0
 70
     1
  0
VERTEX
  5
117
  8
LAYER_02
 10
153.9948979591827
 20
77.35535714285835
 30
0.0
  0
VERTEX
  5
118
  8
LAYER_02
 10
168.0535714285688
 20
77.35535714285835
 30
0.0
  0
VERTEX
  5
119
  8
LAYER_02
 10
168.0535714285688
 20
76.36811224489908
 30
0.0
  0
VERTEX
  5
11A
  8
LAYER_02
 10
168.8724489795895
 20
76.36811224489908
 30
0.0
  0
VERTEX
  5
11B
  8
LAYER_02
 10
168.8724489795895
 20
72.84515306122559
 30
0.0
  0
VERTEX
  5
11C
  8
LAYER_02
 10
168.0535714285688
 20
72.84515306122559
 30
0.0
  0
VERTEX
  5
11D
  8
LAYER_02
 10
168.0535714285688
 20
67.80433673469499
 30
0.0
  0
VERTEX
  5
11E
  8
LAYER_02
 10
168.8724489795895
 20
67.80433673469499
 30
0.0
  0
VERTEX
  5
11F
  8
LAYER_02
 10
168.8724489795895
 20
64.28137755102149
 30
0.0
  0
VERTEX
  5
120
  8
LAYER_02
 10
168.0535714285688
 20
64.28137755102149
 30
0.0
  0
VERTEX
  5
121
  8
LAYER_02
 10
168.0535714285688
 20
63.29413265306245
 30
0.0
  0
VERTEX
  5
122
  8
LAYER_02
 10
153.9948979591827
 20
63.29413265306245
 30
0.0
  0
VERTEX
  5
123
  8
LAYER_02
 10
153.9948979591827
 20
64.28137755102149
 30
0.0
  0
VERTEX
  5
124
  8
LAYER_02
 10
153.176020408162
 20
64.28137755102149
 30
0.0
  0
VERTEX
  5
125
  8
LAYER_02
 10
153.176020408162
 20
67.80433673469499
 30
0.0
  0
VERTEX
  5
126
  8
LAYER_02
 10
153.9948979591827
 20
67.80433673469499
 30
0.0
  0
VERTEX
  5
127
  8
LAYER_02
 10
153.9948979591827
 20
72.84515306122559
 30
0.0
  0
VERTEX
  5
128
  8
LAYER_02
 10
153.176020408162
 20
72.84515306122559
 30
0.0
  0
VERTEX
  5
129
  8
LAYER_02
 10
153.176020408162
 20
76.36811224489908
 30
0.0
  0
VERTEX
  5
12A
  8
LAYER_02
 10
153.9948979591827
 20
76.36811224489908
 30
0.0
  0
SEQEND
  5
12B
  8
LAYER_02
  0
POLYLINE
  5
12C
  8
LAYER_02
 66
     1
 10
0.0
 20
0.0
 30
0.0
 70
     1
  0
VERTEX
  5
12D
  8
LAYER_02
 10
149.7908163265274
 20
38.20229591836848
 30
0.0
  0
VERTEX
  5
12E
  8
LAYER_02
 10
149.7908163265274
 20
34.68188775510318
 30
0.0
  0
VERTEX
  5
12F
  8
LAYER_02
 10
148.9719387755067
 20
34.68188775510318
 30
0.0
  0
VERTEX
  5
130
  8
LAYER_02
 10
148.9719387755067
 20
29.63852040816438
 30
0.0
  0
VERTEX
  5
131
  8
LAYER_02
 10
149.7908163265274
 20
29.63852040816438
 30
0.0
  0
VERTEX
  5
132
  8
LAYER_02
 10
149.7908163265274
 20
26.11811224489908
 30
0.0
  0
VERTEX
  5
133
  8
LAYER_02
 10
148.9719387755067
 20
26.11811224489908
 30
0.0
  0
VERTEX
  5
134
  8
LAYER_02
 10
148.9719387755067
 20
25.13086734693981
 30
0.0
  0
VERTEX
  5
135
  8
LAYER_02
 10
134.9107142857138
 20
25.13086734693981
 30
0.0
  0
VERTEX
  5
136
  8
LAYER_02
 10
134.9107142857138
 20
26.11811224489908
 30
0.0
  0
VERTEX
  5
137
  8
LAYER_02
 10
134.0918367346931
 20
26.11811224489908
 30
0.0
  0
VERTEX
  5
138
  8
LAYER_02
 10
134.0918367346931
 20
29.63852040816438
 30
0.0
  0
VERTEX
  5
139
  8
LAYER_02
 10
134.9107142857138
 20
29.63852040816438
 30
0.0
  0
VERTEX
  5
13A
  8
LAYER_02
 10
134.9107142857138
 20
34.68188775510318
 30
0.0
  0
VERTEX
  5
13B
  8
LAYER_02
 10
134.0918367346931
 20
34.68188775510318
 30
0.0
  0
VERTEX
  5
13C
  8
LAYER_02
 10
134.0918367346931
 20
38.20229591836848
 30
0.0
  0
VERTEX
  5
13D
  8
LAYER_02
 10
134.9107142857138
 20
38.20229591836848
 30
0.0
  0
VERTEX
  5
13E
  8
LAYER_02
 10
134.9107142857138
 20
39.18954081632775
 30
0.0
  0
VERTEX
  5
13F
  8
LAYER_02
 10
148.9719387755067
 20
39.18954081632775
 30
0.0
  0
VERTEX
  5
140
  8
LAYER_02
 10
148.9719387755067
 20
38.20229591836848
 30
0.0
  0
SEQEND
  5
141
  8
LAYER_02
  0
POLYLINE
  5
142
  8
LAYER_02
 66
     1
 10
0.0
 20
0.0
 30
0.0
 70
     1
  0
VERTEX
  5
143
  8
LAYER_02
 10
168.8724489795895
 20
57.28647959183787
 30
0.0
  0
VERTEX
  5
144
  8
LAYER_02
 10
168.8724489795895
 20
53.76352040816438
 30
0.0
  0
VERTEX
  5
145
  8
LAYER_02
 10
168.0535714285688
 20
53.76352040816438
 30
0.0
  0
VERTEX
  5
146
  8
LAYER_02
 10
168.0535714285688
 20
48.72270408163378
 30
0.0
  0
VERTEX
  5
147
  8
LAYER_02
 10
168.8724489795895
 20
48.72270408163378
 30
0.0
  0
VERTEX
  5
148
  8
LAYER_02
 10
168.8724489795895
 20
45.19974489796029
 30
0.0
  0
VERTEX
  5
149
  8
LAYER_02
 10
168.0535714285688
 20
45.19974489796029
 30
0.0
  0
VERTEX
  5
14A
  8
LAYER_02
 10
168.0535714285688
 20
44.21250000000101
 30
0.0
  0
VERTEX
  5
14B
  8
LAYER_02
 10
153.9948979591827
 20
44.21250000000101
 30
0.0
  0
VERTEX
  5
14C
  8
LAYER_02
 10
153.9948979591827
 20
45.19974489796029
 30
0.0
  0
VERTEX
  5
14D
  8
LAYER_02
 10
153.176020408162
 20
45.19974489796029
 30
0.0
  0
VERTEX
  5
14E
  8
LAYER_02
 10
153.176020408162
 20
48.72270408163378
 30
0.0
  0
VERTEX
  5
14F
  8
LAYER_02
 10
153.9948979591827
 20
48.72270408163378
 30
0.0
  0
VERTEX
  5
150
  8
LAYER_02
 10
153.9948979591827
 20
53.76352040816438
 30
0.0
  0
VERTEX
  5
151
  8
LAYER_02
 10
153.176020408162
 20
53.76352040816438
 30
0.0
  0
VERTEX
  5
152
  8
LAYER_02
 10
153.176020408162
 20
57.28647959183787
 30
0.0
  0
VERTEX
  5
153
  8
LAYER_02
 10
153.9948979591827
 20
57.28647959183787
 30
0.0
  0
VERTEX
  5
154
  8
LAYER_02
 10
153.9948979591827
 20
58.27372448979715
 30
0.0
  0
VERTEX
  5
155
  8
LAYER_02
 10
168.0535714285688
 20
58.27372448979715
 30
0.0
  0
VERTEX
  5
156
  8
LAYER_02
 10
168.0535714285688
 20
57.28647959183787
 30
0.0
  0
SEQEND
  5
157
  8
LAYER_02
  0
POLYLINE
  5
158
  8
LAYER_02
 66
     1
 10
0.0
 20
0.0
 30
0.0
 70
     1
  0
VERTEX
  5
159
  8
LAYER_02
 10
167.6811224489757
 20
13.58750000000101
 30
0.0
  0
VERTEX
  5
15A
  8
LAYER_02
 10
167.6811224489757
 20
10.78137755102149
 30
0.0
  0
VERTEX
  5
15B
  8
LAYER_02
 10
166.8137755102034
 20
10.78137755102149
 30
0.0
  0
VERTEX
  5
15C
  8
LAYER_02
 10
166.8137755102034
 20
7.363010204082698
 30
0.0
  0
VERTEX
  5
15D
  8
LAYER_02
 10
160.1301020408173
 20
7.363010204082698
 30
0.0
  0
VERTEX
  5
15E
  8
LAYER_02
 10
160.1301020408173
 20
8.179336734694985
 30
0.0
  0
VERTEX
  5
15F
  8
LAYER_02
 10
158.4974489795895
 20
8.179336734694985
 30
0.0
  0
VERTEX
  5
160
  8
LAYER_02
 10
158.4974489795895
 20
6.061989795919558
 30
0.0
  0
VERTEX
  5
161
  8
LAYER_02
 10
144.4668367346931
 20
6.061989795919558
 30
0.0
  0
VERTEX
  5
162
  8
LAYER_02
 10
144.4668367346931
 20
8.179336734694985
 30
0.0
  0
VERTEX
  5
163
  8
LAYER_02
 10
142.8341836734653
 20
8.179336734694985
 30
0.0
  0
VERTEX
  5
164
  8
LAYER_02
 10
142.8341836734653
 20
7.363010204082698
 30
0.0
  0
VERTEX
  5
165
  8
LAYER_02
 10
136.1505102040792
 20
7.363010204082698
 30
0.0
  0
VERTEX
  5
166
  8
LAYER_02
 10
136.1505102040792
 20
10.78137755102149
 30
0.0
  0
VERTEX
  5
167
  8
LAYER_02
 10
135.2831632653069
 20
10.78137755102149
 30
0.0
  0
VERTEX
  5
168
  8
LAYER_02
 10
135.2831632653069
 20
13.58750000000101
 30
0.0
  0
VERTEX
  5
169
  8
LAYER_02
 10
136.1505102040792
 20
13.58750000000101
 30
0.0
  0
VERTEX
  5
16A
  8
LAYER_02
 10
136.1505102040792
 20
19.70994897959305
 30
0.0
  0
VERTEX
  5
16B
  8
LAYER_02
 10
137.1964285714239
 20
19.70994897959305
 30
0.0
  0
VERTEX
  5
16C
  8
LAYER_02
 10
137.1964285714239
 20
20.883418367348
 30
0.0
  0
VERTEX
  5
16D
  8
LAYER_02
 10
141.7882653061206
 20
20.883418367348
 30
0.0
  0
VERTEX
  5
16E
  8
LAYER_02
 10
141.7882653061206
 20
19.70994897959305
 30
0.0
  0
VERTEX
  5
16F
  8
LAYER_02
 10
142.8341836734653
 20
19.70994897959305
 30
0.0
  0
VERTEX
  5
170
  8
LAYER_02
 10
142.8341836734653
 20
18.91913265306245
 30
0.0
  0
VERTEX
  5
171
  8
LAYER_02
 10
144.4668367346931
 20
18.91913265306245
 30
0.0
  0
VERTEX
  5
172
  8
LAYER_02
 10
144.4668367346931
 20
20.0926020408174
 30
0.0
  0
VERTEX
  5
173
  8
LAYER_02
 10
158.4974489795895
 20
20.0926020408174
 30
0.0
  0
VERTEX
  5
174
  8
LAYER_02
 10
158.4974489795895
 20
18.91913265306245
 30
0.0
  0
VERTEX
  5
175
  8
LAYER_02
 10
160.1301020408173
 20
18.91913265306245
 30
0.0
  0
VERTEX
  5
176
  8
LAYER_02
 10
160.1301020408173
 20
19.70994897959305
 30
0.0
  0
VERTEX
  5
177
  8
LAYER_02
 10
161.176020408162
 20
19.70994897959305
 30
0.0
  0
VERTEX
  5
178
  8
LAYER_02
 10
161.176020408162
 20
20.883418367348
 30
0.0
  0
VERTEX
  5
179
  8
LAYER_02
 10
165.7678571428587
 20
20.883418367348
 30
0.0
  0
VERTEX
  5
17A
  8
LAYER_02
 10
165.7678571428587
 20
19.70994897959305
 30
0.0
  0
VERTEX
  5
17B
  8
LAYER_02
 10
166.8137755102034
 20
19.70994897959305
 30
0.0
  0
VERTEX
  5
17C
  8
LAYER_02
 10
166.8137755102034
 20
13.58750000000101
 30
0.0
  0
SEQEND
  5
17D
  8
LAYER_02
  0
POLYLINE
  5
17E
  8
LAYER_02
 66
     1
 10
0.0
 20
0.0
 30
0.0
 70
     1
  0
VERTEX
  5
17F
  8
LAYER_02
 10
115.8290816326517
 20
20.10790816326654
 30
0.0
  0
VERTEX
  5
180
  8
LAYER_02
 10
129.8903061224446
 20
20.10790816326654
 30
0.0
  0
VERTEX
  5
181
  8
LAYER_02
 10
129.8903061224446
 20
19.12066326530727
 30
0.0
  0
VERTEX
  5
182
  8
LAYER_02
 10
130.7091836734653
 20
19.12066326530727
 30
0.0
  0
VERTEX
  5
183
  8
LAYER_02
 10
130.7091836734653
 20
15.59770408163378
 30
0.0
  0
VERTEX
  5
184
  8
LAYER_02
 10
129.8903061224446
 20
15.59770408163378
 30
0.0
  0
VERTEX
  5
185
  8
LAYER_02
 10
129.8903061224446
 20
10.55688775510318
 30
0.0
  0
VERTEX
  5
186
  8
LAYER_02
 10
130.7091836734653
 20
10.55688775510318
 30
0.0
  0
VERTEX
  5
187
  8
LAYER_02
 10
130.7091836734653
 20
7.033928571429684
 30
0.0
  0
VERTEX
  5
188
  8
LAYER_02
 10
129.8903061224446
 20
7.033928571429684
 30
0.0
  0
VERTEX
  5
189
  8
LAYER_02
 10
129.8903061224446
 20
6.046683673470412
 30
0.0
  0
VERTEX
  5
18A
  8
LAYER_02
 10
115.8290816326517
 20
6.046683673470412
 30
0.0
  0
VERTEX
  5
18B
  8
LAYER_02
 10
115.8290816326517
 20
7.033928571429684
 30
0.0
  0
VERTEX
  5
18C
  8
LAYER_02
 10
115.0102040816309
 20
7.033928571429684
 30
0.0
  0
VERTEX
  5
18D
  8
LAYER_02
 10
115.0102040816309
 20
10.55688775510318
 30
0.0
  0
VERTEX
  5
18E
  8
LAYER_02
 10
115.8290816326517
 20
10.55688775510318
 30
0.0
  0
VERTEX
  5
18F
  8
LAYER_02
 10
115.8290816326517
 20
15.59770408163378
 30
0.0
  0
VERTEX
  5
190
  8
LAYER_02
 10
115.0102040816309
 20
15.59770408163378
 30
0.0
  0
VERTEX
  5
191
  8
LAYER_02
 10
115.0102040816309
 20
19.12066326530727
 30
0.0
  0
VERTEX
  5
192
  8
LAYER_02
 10
115.8290816326517
 20
19.12066326530727
 30
0.0
  0
SEQEND
  5
193
  8
LAYER_02
  0
POLYLINE
  5
194
  8
LAYER_02
 66
     1
 10
0.0
 20
0.0
 30
0.0
 70
     1
  0
VERTEX
  5
195
  8
LAYER_02
 10
126.6862244897966
 20
35.4038265306133
 30
0.0
  0
VERTEX
  5
196
  8
LAYER_02
 10
126.6862244897966
 20
47.95739795918486
 30
0.0
  0
VERTEX
  5
197
  8
LAYER_02
 10
114.1326530612241
 20
47.95739795918486
 30
0.0
  0
VERTEX
  5
198
  8
LAYER_02
 10
114.1326530612241
 20
35.4038265306133
 30
0.0
  0
SEQEND
  5
199
  8
LAYER_02
  0
POLYLINE
  5
19A
  8
LAYER_02
 66
     1
 10
0.0
 20
0.0
 30
0.0
 70
     1
  0
VERTEX
  5
19B
  8
LAYER_02
 10
153.176020408162
 20
38.20229591836848
 30
0.0
  0
VERTEX
  5
19C
  8
LAYER_02
 10
153.9948979591827
 20
38.20229591836848
 30
0.0
  0
VERTEX
  5
19D
  8
LAYER_02
 10
153.9948979591827
 20
39.18954081632775
 30
0.0
  0
VERTEX
  5
19E
  8
LAYER_02
 10
168.0535714285688
 20
39.18954081632775
 30
0.0
  0
VERTEX
  5
19F
  8
LAYER_02
 10
168.0535714285688
 20
38.20229591836848
 30
0.0
  0
VERTEX
  5
1A0
  8
LAYER_02
 10
168.8724489795895
 20
38.20229591836848
 30
0.0
  0
VERTEX
  5
1A1
  8
LAYER_02
 10
168.8724489795895
 20
34.68188775510318
 30
0.0
  0
VERTEX
  5
1A2
  8
LAYER_02
 10
168.0535714285688
 20
34.68188775510318
 30
0.0
  0
VERTEX
  5
1A3
  8
LAYER_02
 10
168.0535714285688
 20
29.63852040816438
 30
0.0
  0
VERTEX
  5
1A4
  8
LAYER_02
 10
168.8724489795895
 20
29.63852040816438
 30
0.0
  0
VERTEX
  5
1A5
  8
LAYER_02
 10
168.8724489795895
 20
26.11811224489908
 30
0.0
  0
VERTEX
  5
1A6
  8
LAYER_02
 10
168.0535714285688
 20
26.11811224489908
 30
0.0
  0
VERTEX
  5
1A7
  8
LAYER_02
 10
168.0535714285688
 20
25.13086734693981
 30
0.0
  0
VERTEX
  5
1A8
  8
LAYER_02
 10
153.9948979591827
 20
25.13086734693981
 30
0.0
  0
VERTEX
  5
1A9
  8
LAYER_02
 10
153.9948979591827
 20
26.11811224489908
 30
0.0
  0
VERTEX
  5
1AA
  8
LAYER_02
 10
153.176020408162
 20
26.11811224489908
 30
0.0
  0
VERTEX
  5
1AB
  8
LAYER_02
 10
153.176020408162
 20
29.63852040816438
 30
0.0
  0
VERTEX
  5
1AC
  8
LAYER_02
 10
153.9948979591827
 20
29.63852040816438
 30
0.0
  0
VERTEX
  5
1AD
  8
LAYER_02
 10
153.9948979591827
 20
34.68188775510318
 30
0.0
  0
VERTEX
  5
1AE
  8
LAYER_02
 10
153.176020408162
 20
34.68188775510318
 30
0.0
  0
SEQEND
  5
1AF
  8
LAYER_02
  0
POLYLINE
  5
1B0
  8
LAYER_02
 66
     1
 10
0.0
 20
0.0
 30
0.0
 70
     1
  0
VERTEX
  5
1B1
  8
LAYER_02
 10
173.0765306122448
 20
20.10790816326654
 30
0.0
  0
VERTEX
  5
1B2
  8
LAYER_02
 10
187.1377551020378
 20
20.10790816326654
 30
0.0
  0
VERTEX
  5
1B3
  8
LAYER_02
 10
187.1377551020378
 20
19.12066326530727
 30
0.0
  0
VERTEX
  5
1B4
  8
LAYER_02
 10
187.9566326530585
 20
19.12066326530727
 30
0.0
  0
VERTEX
  5
1B5
  8
LAYER_02
 10
187.9566326530585
 20
15.59770408163378
 30
0.0
  0
VERTEX
  5
1B6
  8
LAYER_02
 10
187.1377551020378
 20
15.59770408163378
 30
0.0
  0
VERTEX
  5
1B7
  8
LAYER_02
 10
187.1377551020378
 20
10.55688775510318
 30
0.0
  0
VERTEX
  5
1B8
  8
LAYER_02
 10
187.9566326530585
 20
10.55688775510318
 30
0.0
  0
VERTEX
  5
1B9
  8
LAYER_02
 10
187.9566326530585
 20
7.033928571429684
 30
0.0
  0
VERTEX
  5
1BA
  8
LAYER_02
 10
187.1377551020378
 20
7.033928571429684
 30
0.0
  0
VERTEX
  5
1BB
  8
LAYER_02
 10
187.1377551020378
 20
6.046683673470412
 30
0.0
  0
VERTEX
  5
1BC
  8
LAYER_02
 10
173.0765306122448
 20
6.046683673470412
 30
0.0
  0
VERTEX
  5
1BD
  8
LAYER_02
 10
173.0765306122448
 20
7.033928571429684
 30
0.0
  0
VERTEX
  5
1BE
  8
LAYER_02
 10
172.2576530612241
 20
7.033928571429684
 30
0.0
  0
VERTEX
  5
1BF
  8
LAYER_02
 10
172.2576530612241
 20
10.55688775510318
 30
0.0
  0
VERTEX
  5
1C0
  8
LAYER_02
 10
173.0765306122448
 20
10.55688775510318
 30
0.0
  0
VERTEX
  5
1C1
  8
LAYER_02
 10
173.0765306122448
 20
15.59770408163378
 30
0.0
  0
VERTEX
  5
1C2
  8
LAYER_02
 10
172.2576530612241
 20
15.59770408163378
 30
0.0
  0
VERTEX
  5
1C3
  8
LAYER_02
 10
172.2576530612241
 20
19.12066326530727
 30
0.0
  0
VERTEX
  5
1C4
  8
LAYER_02
 10
173.0765306122448
 20
19.12066326530727
 30
0.0
  0
SEQEND
  5
1C5
  8
LAYER_02
  0
POLYLINE
  5
1C6
  8
LAYER_02
 66
     1
 10
0.0
 20
0.0
 30
0.0
 70
     1
  0
VERTEX
  5
1C7
  8
LAYER_02
 10
187.9566326530585
 20
38.20229591836848
 30
0.0
  0
VERTEX
  5
1C8
  8
LAYER_02
 10
187.9566326530585
 20
34.68188775510318
 30
0.0
  0
VERTEX
  5
1C9
  8
LAYER_02
 10
187.1377551020378
 20
34.68188775510318
 30
0.0
  0
VERTEX
  5
1CA
  8
LAYER_02
 10
187.1377551020378
 20
29.63852040816438
 30
0.0
  0
VERTEX
  5
1CB
  8
LAYER_02
 10
187.9566326530585
 20
29.63852040816438
 30
0.0
  0
VERTEX
  5
1CC
  8
LAYER_02
 10
187.9566326530585
 20
26.11811224489908
 30
0.0
  0
VERTEX
  5
1CD
  8
LAYER_02
 10
187.1377551020378
 20
26.11811224489908
 30
0.0
  0
VERTEX
  5
1CE
  8
LAYER_02
 10
187.1377551020378
 20
25.13086734693981
 30
0.0
  0
VERTEX
  5
1CF
  8
LAYER_02
 10
173.0765306122448
 20
25.13086734693981
 30
0.0
  0
VERTEX
  5
1D0
  8
LAYER_02
 10
173.0765306122448
 20
26.11811224489908
 30
0.0
  0
VERTEX
  5
1D1
  8
LAYER_02
 10
172.2576530612241
 20
26.11811224489908
 30
0.0
  0
VERTEX
  5
1D2
  8
LAYER_02
 10
172.2576530612241
 20
29.63852040816438
 30
0.0
  0
VERTEX
  5
1D3
  8
LAYER_02
 10
173.0765306122448
 20
29.63852040816438
 30
0.0
  0
VERTEX
  5
1D4
  8
LAYER_02
 10
173.0765306122448
 20
34.68188775510318
 30
0.0
  0
VERTEX
  5
1D5
  8
LAYER_02
 10
172.2576530612241
 20
34.68188775510318
 30
0.0
  0
VERTEX
  5
1D6
  8
LAYER_02
 10
172.2576530612241
 20
38.20229591836848
 30
0.0
  0
VERTEX
  5
1D7
  8
LAYER_02
 10
173.0765306122448
 20
38.20229591836848
 30
0.0
  0
VERTEX
  5
1D8
  8
LAYER_02
 10
173.0765306122448
 20
39.18954081632775
 30
0.0
  0
VERTEX
  5
1D9
  8
LAYER_02
 10
187.1377551020378
 20
39.18954081632775
 30
0.0
  0
VERTEX
  5
1DA
  8
LAYER_02
 10
187.1377551020378
 20
38.20229591836848
 30
0.0
  0
SEQEND
  5
1DB
  8
LAYER_02
  0
POLYLINE
  5
1DC
  8
LAYER_02
 66
     1
 10
0.0
 20
0.0
 30
0.0
 70
     1
  0
VERTEX
  5
1DD
  8
LAYER_02
 10
204.0867346938794
 20
15.60280612245016
 30
0.0
  0
VERTEX
  5
1DE
  8
LAYER_02
 10
206.2040816326517
 20
15.60280612245016
 30
0.0
  0
VERTEX
  5
1DF
  8
LAYER_02
 10
206.2040816326517
 20
29.633418367348
 30
0.0
  0
VERTEX
  5
1E0
  8
LAYER_02
 10
204.0867346938794
 20
29.633418367348
 30
0.0
  0
VERTEX
  5
1E1
  8
LAYER_02
 10
204.0867346938794
 20
31.26607142857257
 30
0.0
  0
VERTEX
  5
1E2
  8
LAYER_02
 10
204.903061224486
 20
31.26607142857257
 30
0.0
  0
VERTEX
  5
1E3
  8
LAYER_02
 10
204.903061224486
 20
37.94974489796029
 30
0.0
  0
VERTEX
  5
1E4
  8
LAYER_02
 10
201.4846938775481
 20
37.94974489796029
 30
0.0
  0
VERTEX
  5
1E5
  8
LAYER_02
 10
201.4846938775481
 20
38.81709183673594
 30
0.0
  0
VERTEX
  5
1E6
  8
LAYER_02
 10
198.6785714285688
 20
38.81709183673594
 30
0.0
  0
VERTEX
  5
1E7
  8
LAYER_02
 10
198.6785714285688
 20
37.94974489796029
 30
0.0
  0
VERTEX
  5
1E8
  8
LAYER_02
 10
192.5561224489757
 20
37.94974489796029
 30
0.0
  0
VERTEX
  5
1E9
  8
LAYER_02
 10
192.5561224489757
 20
36.9038265306133
 30
0.0
  0
VERTEX
  5
1EA
  8
LAYER_02
 10
191.3826530612241
 20
36.9038265306133
 30
0.0
  0
VERTEX
  5
1EB
  8
LAYER_02
 10
191.3826530612241
 20
32.31198979591956
 30
0.0
  0
VERTEX
  5
1EC
  8
LAYER_02
 10
192.5561224489757
 20
32.31198979591956
 30
0.0
  0
VERTEX
  5
1ED
  8
LAYER_02
 10
192.5561224489757
 20
31.26607142857257
 30
0.0
  0
VERTEX
  5
1EE
  8
LAYER_02
 10
193.3469387755067
 20
31.26607142857257
 30
0.0
  0
VERTEX
  5
1EF
  8
LAYER_02
 10
193.3469387755067
 20
29.633418367348
 30
0.0
  0
VERTEX
  5
1F0
  8
LAYER_02
 10
192.1734693877552
 20
29.633418367348
 30
0.0
  0
VERTEX
  5
1F1
  8
LAYER_02
 10
192.1734693877552
 20
15.60280612245016
 30
0.0
  0
VERTEX
  5
1F2
  8
LAYER_02
 10
193.3469387755067
 20
15.60280612245016
 30
0.0
  0
VERTEX
  5
1F3
  8
LAYER_02
 10
193.3469387755067
 20
13.97015306122559
 30
0.0
  0
VERTEX
  5
1F4
  8
LAYER_02
 10
192.5561224489757
 20
13.97015306122559
 30
0.0
  0
VERTEX
  5
1F5
  8
LAYER_02
 10
192.5561224489757
 20
12.9242346938786
 30
0.0
  0
VERTEX
  5
1F6
  8
LAYER_02
 10
191.3826530612241
 20
12.9242346938786
 30
0.0
  0
VERTEX
  5
1F7
  8
LAYER_02
 10
191.3826530612241
 20
8.33239795918486
 30
0.0
  0
VERTEX
  5
1F8
  8
LAYER_02
 10
192.5561224489757
 20
8.33239795918486
 30
0.0
  0
VERTEX
  5
1F9
  8
LAYER_02
 10
192.5561224489757
 20
7.286479591837875
 30
0.0
  0
VERTEX
  5
1FA
  8
LAYER_02
 10
198.6785714285688
 20
7.286479591837875
 30
0.0
  0
VERTEX
  5
1FB
  8
LAYER_02
 10
198.6785714285688
 20
6.419132653062448
 30
0.0
  0
VERTEX
  5
1FC
  8
LAYER_02
 10
201.4846938775481
 20
6.419132653062448
 30
0.0
  0
VERTEX
  5
1FD
  8
LAYER_02
 10
201.4846938775481
 20
7.286479591837875
 30
0.0
  0
VERTEX
  5
1FE
  8
LAYER_02
 10
204.903061224486
 20
7.286479591837875
 30
0.0
  0
VERTEX
  5
1FF
  8
LAYER_02
 10
204.903061224486
 20
13.97015306122559
 30
0.0
  0
VERTEX
  5
200
  8
LAYER_02
 10
204.0867346938794
 20
13.97015306122559
 30
0.0
  0
SEQEND
  5
201
  8
LAYER_02
  0
POLYLINE
  5
202
  8
LAYER_02
 66
     1
 10
0.0
 20
0.0
 30
0.0
 70
     1
  0
VERTEX
  5
203
  8
LAYER_02
 10
173.0765306122448
 20
96.43698979591956
 30
0.0
  0
VERTEX
  5
204
  8
LAYER_02
 10
187.1377551020378
 20
96.43698979591956
 30
0.0
  0
VERTEX
  5
205
  8
LAYER_02
 10
187.1377551020378
 20
95.44974489796029
 30
0.0
  0
VERTEX
  5
206
  8
LAYER_02
 10
187.9566326530585
 20
95.44974489796029
 30
0.0
  0
VERTEX
  5
207
  8
LAYER_02
 10
187.9566326530585
 20
91.92933673469499
 30
0.0
  0
VERTEX
  5
208
  8
LAYER_02
 10
187.1377551020378
 20
91.92933673469499
 30
0.0
  0
VERTEX
  5
209
  8
LAYER_02
 10
187.1377551020378
 20
86.88596938775619
 30
0.0
  0
VERTEX
  5
20A
  8
LAYER_02
 10
187.9566326530585
 20
86.88596938775619
 30
0.0
  0
VERTEX
  5
20B
  8
LAYER_02
 10
187.9566326530585
 20
83.36556122449089
 30
0.0
  0
VERTEX
  5
20C
  8
LAYER_02
 10
187.1377551020378
 20
83.36556122449089
 30
0.0
  0
VERTEX
  5
20D
  8
LAYER_02
 10
187.1377551020378
 20
82.37831632653184
 30
0.0
  0
VERTEX
  5
20E
  8
LAYER_02
 10
173.0765306122448
 20
82.37831632653184
 30
0.0
  0
VERTEX
  5
20F
  8
LAYER_02
 10
173.0765306122448
 20
83.36556122449089
 30
0.0
  0
VERTEX
  5
210
  8
LAYER_02
 10
172.2576530612241
 20
83.36556122449089
 30
0.0
  0
VERTEX
  5
211
  8
LAYER_02
 10
172.2576530612241
 20
86.88596938775619
 30
0.0
  0
VERTEX
  5
212
  8
LAYER_02
 10
173.0765306122448
 20
86.88596938775619
 30
0.0
  0
VERTEX
  5
213
  8
LAYER_02
 10
173.0765306122448
 20
91.92933673469499
 30
0.0
  0
VERTEX
  5
214
  8
LAYER_02
 10
172.2576530612241
 20
91.92933673469499
 30
0.0
  0
VERTEX
  5
215
  8
LAYER_02
 10
172.2576530612241
 20
95.44974489796029
 30
0.0
  0
VERTEX
  5
216
  8
LAYER_02
 10
173.0765306122448
 20
95.44974489796029
 30
0.0
  0
SEQEND
  5
217
  8
LAYER_02
  0
POLYLINE
  5
218
  8
LAYER_02
 66
     1
 10
0.0
 20
0.0
 30
0.0
 70
     1
  0
VERTEX
  5
219
  8
LAYER_02
 10
168.8724489795895
 20
95.44974489796029
 30
0.0
  0
VERTEX
  5
21A
  8
LAYER_02
 10
168.8724489795895
 20
91.92933673469499
 30
0.0
  0
VERTEX
  5
21B
  8
LAYER_02
 10
168.0535714285688
 20
91.92933673469499
 30
0.0
  0
VERTEX
  5
21C
  8
LAYER_02
 10
168.0535714285688
 20
86.88596938775619
 30
0.0
  0
VERTEX
  5
21D
  8
LAYER_02
 10
168.8724489795895
 20
86.88596938775619
 30
0.0
  0
VERTEX
  5
21E
  8
LAYER_02
 10
168.8724489795895
 20
83.36556122449089
 30
0.0
  0
VERTEX
  5
21F
  8
LAYER_02
 10
168.0535714285688
 20
83.36556122449089
 30
0.0
  0
VERTEX
  5
220
  8
LAYER_02
 10
168.0535714285688
 20
82.37831632653184
 30
0.0
  0
VERTEX
  5
221
  8
LAYER_02
 10
153.9948979591827
 20
82.37831632653184
 30
0.0
  0
VERTEX
  5
222
  8
LAYER_02
 10
153.9948979591827
 20
83.36556122449089
 30
0.0
  0
VERTEX
  5
223
  8
LAYER_02
 10
153.176020408162
 20
83.36556122449089
 30
0.0
  0
VERTEX
  5
224
  8
LAYER_02
 10
153.176020408162
 20
86.88596938775619
 30
0.0
  0
VERTEX
  5
225
  8
LAYER_02
 10
153.9948979591827
 20
86.88596938775619
 30
0.0
  0
VERTEX
  5
226
  8
LAYER_02
 10
153.9948979591827
 20
91.92933673469499
 30
0.0
  0
VERTEX
  5
227
  8
LAYER_02
 10
153.176020408162
 20
91.92933673469499
 30
0.0
  0
VERTEX
  5
228
  8
LAYER_02
 10
153.176020408162
 20
95.44974489796029
 30
0.0
  0
VERTEX
  5
229
  8
LAYER_02
 10
153.9948979591827
 20
95.44974489796029
 30
0.0
  0
VERTEX
  5
22A
  8
LAYER_02
 10
153.9948979591827
 20
96.43698979591956
 30
0.0
  0
VERTEX
  5
22B
  8
LAYER_02
 10
168.0535714285688
 20
96.43698979591956
 30
0.0
  0
VERTEX
  5
22C
  8
LAYER_02
 10
168.0535714285688
 20
95.44974489796029
 30
0.0
  0
SEQEND
  5
22D
  8
LAYER_02
  0
POLYLINE
  5
22E
  8
LAYER_02
 66
     1
 10
0.0
 20
0.0
 30
0.0
 70
     1
  0
VERTEX
  5
22F
  8
LAYER_02
 10
173.0765306122448
 20
58.27372448979715
 30
0.0
  0
VERTEX
  5
230
  8
LAYER_02
 10
187.1377551020378
 20
58.27372448979715
 30
0.0
  0
VERTEX
  5
231
  8
LAYER_02
 10
187.1377551020378
 20
57.28647959183787
 30
0.0
  0
VERTEX
  5
232
  8
LAYER_02
 10
187.9566326530585
 20
57.28647959183787
 30
0.0
  0
VERTEX
  5
233
  8
LAYER_02
 10
187.9566326530585
 20
53.76352040816438
 30
0.0
  0
VERTEX
  5
234
  8
LAYER_02
 10
187.1377551020378
 20
53.76352040816438
 30
0.0
  0
VERTEX
  5
235
  8
LAYER_02
 10
187.1377551020378
 20
48.72270408163378
 30
0.0
  0
VERTEX
  5
236
  8
LAYER_02
 10
187.9566326530585
 20
48.72270408163378
 30
0.0
  0
VERTEX
  5
237
  8
LAYER_02
 10
187.9566326530585
 20
45.19974489796029
 30
0.0
  0
VERTEX
  5
238
  8
LAYER_02
 10
187.1377551020378
 20
45.19974489796029
 30
0.0
  0
VERTEX
  5
239
  8
LAYER_02
 10
187.1377551020378
 20
44.21250000000101
 30
0.0
  0
VERTEX
  5
23A
  8
LAYER_02
 10
173.0765306122448
 20
44.21250000000101
 30
0.0
  0
VERTEX
  5
23B
  8
LAYER_02
 10
173.0765306122448
 20
45.19974489796029
 30
0.0
  0
VERTEX
  5
23C
  8
LAYER_02
 10
172.2576530612241
 20
45.19974489796029
 30
0.0
  0
VERTEX
  5
23D
  8
LAYER_02
 10
172.2576530612241
 20
48.72270408163378
 30
0.0
  0
VERTEX
  5
23E
  8
LAYER_02
 10
173.0765306122448
 20
48.72270408163378
 30
0.0
  0
VERTEX
  5
23F
  8
LAYER_02
 10
173.0765306122448
 20
53.76352040816438
 30
0.0
  0
VERTEX
  5
240
  8
LAYER_02
 10
172.2576530612241
 20
53.76352040816438
 30
0.0
  0
VERTEX
  5
241
  8
LAYER_02
 10
172.2576530612241
 20
57.28647959183787
 30
0.0
  0
VERTEX
  5
242
  8
LAYER_02
 10
173.0765306122448
 20
57.28647959183787
 30
0.0
  0
SEQEND
  5
243
  8
LAYER_02
  0
POLYLINE
  5
244
  8
LAYER_02
 66
     1
 10
0.0
 20
0.0
 30
0.0
 70
     1
  0
VERTEX
  5
245
  8
LAYER_02
 10
187.1377551020378
 20
72.84515306122559
 30
0.0
  0
VERTEX
  5
246
  8
LAYER_02
 10
187.1377551020378
 20
67.80433673469499
 30
0.0
  0
VERTEX
  5
247
  8
LAYER_02
 10
187.9566326530585
 20
67.80433673469499
 30
0.0
  0
VERTEX
  5
248
  8
LAYER_02
 10
187.9566326530585
 20
64.28137755102149
 30
0.0
  0
VERTEX
  5
249
  8
LAYER_02
 10
187.1377551020378
 20
64.28137755102149
 30
0.0
  0
VERTEX
  5
24A
  8
LAYER_02
 10
187.1377551020378
 20
63.29413265306245
 30
0.0
  0
VERTEX
  5
24B
  8
LAYER_02
 10
173.0765306122448
 20
63.29413265306245
 30
0.0
  0
VERTEX
  5
24C
  8
LAYER_02
 10
173.0765306122448
 20
64.28137755102149
 30
0.0
  0
VERTEX
  5
24D
  8
LAYER_02
 10
172.2576530612241
 20
64.28137755102149
 30
0.0
  0
VERTEX
  5
24E
  8
LAYER_02
 10
172.2576530612241
 20
67.80433673469499
 30
0.0
  0
VERTEX
  5
24F
  8
LAYER_02
 10
173.0765306122448
 20
67.80433673469499
 30
0.0
  0
VERTEX
  5
250
  8
LAYER_02
 10
173.0765306122448
 20
72.84515306122559
 30
0.0
  0
VERTEX
  5
251
  8
LAYER_02
 10
172.2576530612241
 20
72.84515306122559
 30
0.0
  0
VERTEX
  5
252
  8
LAYER_02
 10
172.2576530612241
 20
76.36811224489908
 30
0.0
  0
VERTEX
  5
253
  8
LAYER_02
 10
173.0765306122448
 20
76.36811224489908
 30
0.0
  0
VERTEX
  5
254
  8
LAYER_02
 10
173.0765306122448
 20
77.35535714285835
 30
0.0
  0
VERTEX
  5
255
  8
LAYER_02
 10
187.1377551020378
 20
77.35535714285835
 30
0.0
  0
VERTEX
  5
256
  8
LAYER_02
 10
187.1377551020378
 20
76.36811224489908
 30
0.0
  0
VERTEX
  5
257
  8
LAYER_02
 10
187.9566326530585
 20
76.36811224489908
 30
0.0
  0
VERTEX
  5
258
  8
LAYER_02
 10
187.9566326530585
 20
72.84515306122559
 30
0.0
  0
SEQEND
  5
259
  8
LAYER_02
  0
POLYLINE
  5
25A
  8
LAYER_02
 66
     1
 10
0.0
 20
0.0
 30
0.0
 70
     1
  0
VERTEX
  5
25B
  8
LAYER_02
 10
192.5561224489757
 20
69.43188775510318
 30
0.0
  0
VERTEX
  5
25C
  8
LAYER_02
 10
193.3469387755067
 20
69.43188775510318
 30
0.0
  0
VERTEX
  5
25D
  8
LAYER_02
 10
193.3469387755067
 20
67.7992346938786
 30
0.0
  0
VERTEX
  5
25E
  8
LAYER_02
 10
192.1734693877552
 20
67.7992346938786
 30
0.0
  0
VERTEX
  5
25F
  8
LAYER_02
 10
192.1734693877552
 20
53.76862244898076
 30
0.0
  0
VERTEX
  5
260
  8
LAYER_02
 10
193.3469387755067
 20
53.76862244898076
 30
0.0
  0
VERTEX
  5
261
  8
LAYER_02
 10
193.3469387755067
 20
52.13596938775619
 30
0.0
  0
VERTEX
  5
262
  8
LAYER_02
 10
192.5561224489757
 20
52.13596938775619
 30
0.0
  0
VERTEX
  5
263
  8
LAYER_02
 10
192.5561224489757
 20
51.09005102040921
 30
0.0
  0
VERTEX
  5
264
  8
LAYER_02
 10
191.3826530612241
 20
51.09005102040921
 30
0.0
  0
VERTEX
  5
265
  8
LAYER_02
 10
191.3826530612241
 20
46.49821428571546
 30
0.0
  0
VERTEX
  5
266
  8
LAYER_02
 10
192.5561224489757
 20
46.49821428571546
 30
0.0
  0
VERTEX
  5
267
  8
LAYER_02
 10
192.5561224489757
 20
45.45229591836848
 30
0.0
  0
VERTEX
  5
268
  8
LAYER_02
 10
198.6785714285688
 20
45.45229591836848
 30
0.0
  0
VERTEX
  5
269
  8
LAYER_02
 10
198.6785714285688
 20
44.58494897959305
 30
0.0
  0
VERTEX
  5
26A
  8
LAYER_02
 10
201.4846938775481
 20
44.58494897959305
 30
0.0
  0
VERTEX
  5
26B
  8
LAYER_02
 10
201.4846938775481
 20
45.45229591836848
 30
0.0
  0
VERTEX
  5
26C
  8
LAYER_02
 10
204.903061224486
 20
45.45229591836848
 30
0.0
  0
VERTEX
  5
26D
  8
LAYER_02
 10
204.903061224486
 20
52.13596938775619
 30
0.0
  0
VERTEX
  5
26E
  8
LAYER_02
 10
204.0867346938794
 20
52.13596938775619
 30
0.0
  0
VERTEX
  5
26F
  8
LAYER_02
 10
204.0867346938794
 20
53.76862244898076
 30
0.0
  0
VERTEX
  5
270
  8
LAYER_02
 10
206.2040816326517
 20
53.76862244898076
 30
0.0
  0
VERTEX
  5
271
  8
LAYER_02
 10
206.2040816326517
 20
67.7992346938786
 30
0.0
  0
VERTEX
  5
272
  8
LAYER_02
 10
204.0867346938794
 20
67.7992346938786
 30
0.0
  0
VERTEX
  5
273
  8
LAYER_02
 10
204.0867346938794
 20
69.43188775510318
 30
0.0
  0
VERTEX
  5
274
  8
LAYER_02
 10
204.903061224486
 20
69.43188775510318
 30
0.0
  0
VERTEX
  5
275
  8
LAYER_02
 10
204.903061224486
 20
76.11556122449089
 30
0.0
  0
VERTEX
  5
276
  8
LAYER_02
 10
201.4846938775481
 20
76.11556122449089
 30
0.0
  0
VERTEX
  5
277
  8
LAYER_02
 10
201.4846938775481
 20
76.98290816326654
 30
0.0
  0
VERTEX
  5
278
  8
LAYER_02
 10
198.6785714285688
 20
76.98290816326654
 30
0.0
  0
VERTEX
  5
279
  8
LAYER_02
 10
198.6785714285688
 20
76.11556122449089
 30
0.0
  0
VERTEX
  5
27A
  8
LAYER_02
 10
192.5561224489757
 20
76.11556122449089
 30
0.0
  0
VERTEX
  5
27B
  8
LAYER_02
 10
192.5561224489757
 20
75.0696428571439
 30
0.0
  0
VERTEX
  5
27C
  8
LAYER_02
 10
191.3826530612241
 20
75.0696428571439
 30
0.0
  0
VERTEX
  5
27D
  8
LAYER_02
 10
191.3826530612241
 20
70.47780612245016
 30
0.0
  0
VERTEX
  5
27E
  8
LAYER_02
 10
192.5561224489757
 20
70.47780612245016
 30
0.0
  0
SEQEND
  5
27F
  8
LAYER_02
  0
POLYLINE
  5
280
  8
LAYER_02
 66
     1
 10
0.0
 20
0.0
 30
0.0
 70
     1
  0
VERTEX
  5
281
  8
LAYER_02
 10
207.0382653061206
 20
95.44974489796029
 30
0.0
  0
VERTEX
  5
282
  8
LAYER_02
 10
207.0382653061206
 20
91.92933673469499
 30
0.0
  0
VERTEX
  5
283
  8
LAYER_02
 10
206.2193877550999
 20
91.92933673469499
 30
0.0
  0
VERTEX
  5
284
  8
LAYER_02
 10
206.2193877550999
 20
86.88596938775619
 30
0.0
  0
VERTEX
  5
285
  8
LAYER_02
 10
207.0382653061206
 20
86.88596938775619
 30
0.0
  0
VERTEX
  5
286
  8
LAYER_02
 10
207.0382653061206
 20
83.36556122449089
 30
0.0
  0
VERTEX
  5
287
  8
LAYER_02
 10
206.2193877550999
 20
83.36556122449089
 30
0.0
  0
VERTEX
  5
288
  8
LAYER_02
 10
206.2193877550999
 20
82.37831632653184
 30
0.0
  0
VERTEX
  5
289
  8
LAYER_02
 10
192.1581632653069
 20
82.37831632653184
 30
0.0
  0
VERTEX
  5
28A
  8
LAYER_02
 10
192.1581632653069
 20
83.36556122449089
 30
0.0
  0
VERTEX
  5
28B
  8
LAYER_02
 10
191.3392857142862
 20
83.36556122449089
 30
0.0
  0
VERTEX
  5
28C
  8
LAYER_02
 10
191.3392857142862
 20
86.88596938775619
 30
0.0
  0
VERTEX
  5
28D
  8
LAYER_02
 10
192.1581632653069
 20
86.88596938775619
 30
0.0
  0
VERTEX
  5
28E
  8
LAYER_02
 10
192.1581632653069
 20
91.92933673469499
 30
0.0
  0
VERTEX
  5
28F
  8
LAYER_02
 10
191.3392857142862
 20
91.92933673469499
 30
0.0
  0
VERTEX
  5
290
  8
LAYER_02
 10
191.3392857142862
 20
95.44974489796029
 30
0.0
  0
VERTEX
  5
291
  8
LAYER_02
 10
192.1581632653069
 20
95.44974489796029
 30
0.0
  0
VERTEX
  5
292
  8
LAYER_02
 10
192.1581632653069
 20
96.43698979591956
 30
0.0
  0
VERTEX
  5
293
  8
LAYER_02
 10
206.2193877550999
 20
96.43698979591956
 30
0.0
  0
VERTEX
  5
294
  8
LAYER_02
 10
206.2193877550999
 20
95.44974489796029
 30
0.0
  0
SEQEND
  5
295
  8
LAYER_02
  0
CIRCLE
  5
296
  8
LAYER_02
 10
13.63954081632982
 20
62.16862244898063
 30
0.0
 40
0.9023979591838795
  0
CIRCLE
  5
297
  8
LAYER_02
 10
11.08852040816418
 20
62.16862244898063
 30
0.0
 40
0.9023979591838742
  0
CIRCLE
  5
298
  8
LAYER_02
 10
8.537500000002177
 20
62.16862244898426
 30
0.0
 40
0.9023979591802398
  0
CIRCLE
  5
299
  8
LAYER_02
 10
5.98647959184018
 20
62.16862244898063
 30
0.0
 40
0.9023979591838724
  0
CIRCLE
  5
29A
  8
LAYER_02
 10
0.0
 20
0.0
 30
0.0
 40
1.049999999998619
  0
CIRCLE
  5
29B
  8
LAYER_02
 10
100.9362244897966
 20
0.0000000000036275
 30
0.0
 40
1.049999999998619
  0
CIRCLE
  5
29C
  8
LAYER_02
 10
100.9362244897966
 20
102.1913265306159
 30
0.0
 40
1.049999999998619
  0
CIRCLE
  5
29D
  8
LAYER_02
 10
-0.0000000000000142
 20
102.1913265306123
 30
0.0
 40
1.049999999998633
  0
CIRCLE
  5
29E
  8
LAYER_02
 10
110.6173469387759
 20
-0.00000000000001
 30
0.0
 40
1.049999999998633
  0
CIRCLE
  5
29F
  8
LAYER_02
 10
211.5535714285724
 20
0.0000000000036175
 30
0.0
 40
1.049999999998619
  0
CIRCLE
  5
2A0
  8
LAYER_02
 10
211.5535714285725
 20
102.1913265306159
 30
0.0
 40
1.049999999998619
  0
CIRCLE
  5
2A1
  8
LAYER_02
 10
110.6173469387759
 20
102.1913265306123
 30
0.0
 40
1.049999999998619
  0
CIRCLE
  5
2A2
  8
LAYER_02
 10
221.2346938775481
 20
0.0000000000000402
 30
0.0
 40
1.049999999998647
  0
CIRCLE
  5
2A3
  8
LAYER_02
 10
322.1709183673447
 20
0.0000000000036577
 30
0.0
 40
1.04999999999859
  0
CIRCLE
  5
2A4
  8
LAYER_02
 10
322.1709183673447
 20
102.1913265306159
 30
0.0
 40
1.04999999999859
  0
CIRCLE
  5
2A5
  8
LAYER_02
 10
221.2346938775481
 20
102.1913265306123
 30
0.0
 40
1.049999999998619
  0
CIRCLE
  5
2A6
  8
LAYER_02
 10
64.46096938775372
 20
89.43443877551046
 30
0.0
 40
1.054556122449867
  0
CIRCLE
  5
2A7
  8
LAYER_02
 10
74.66505102040901
 20
89.43443877551046
 30
0.0
 40
1.054556122449867
  0
CIRCLE
  5
2A8
  8
LAYER_02
 10
65.73647959183654
 20
91.98545918367677
 30
0.0
 40
1.682267857140687
  0
CIRCLE
  5
2A9
  8
LAYER_02
 10
72.11403061224337
 20
94.5364795918399
 30
0.0
 40
1.682267857140687
  0
CIRCLE
  5
2AA
  8
LAYER_02
 10
69.56301020408134
 20
89.43443877551044
 30
0.0
 40
2.199591836735664
  0
CIRCLE
  5
2AB
  8
LAYER_02
 10
26.18775510204068
 20
51.41198979591855
 30
0.0
 40
1.054556122449874
  0
CIRCLE
  5
2AC
  8
LAYER_02
 10
36.39183673469233
 20
51.41198979592219
 30
0.0
 40
1.054556122446229
  0
CIRCLE
  5
2AD
  8
LAYER_02
 10
27.46326530611987
 20
53.96301020408124
 30
0.0
 40
1.682267857144318
  0
CIRCLE
  5
2AE
  8
LAYER_02
 10
33.84081632653033
 20
56.51403061224825
 30
0.0
 40
1.682267857140687
  0
CIRCLE
  5
2AF
  8
LAYER_02
 10
31.28979591836833
 20
51.41198979591856
 30
0.0
 40
2.199591836735635
  0
CIRCLE
  5
2B0
  8
LAYER_02
 10
45.32423469387505
 20
51.41198979591856
 30
0.0
 40
1.05455612244986
  0
CIRCLE
  5
2B1
  8
LAYER_02
 10
55.52831632653034
 20
51.41198979591856
 30
0.0
 40
1.05455612244986
  0
CIRCLE
  5
2B2
  8
LAYER_02
 10
46.59974489795786
 20
53.96301020408488
 30
0.0
 40
1.682267857140694
  0
CIRCLE
  5
2B3
  8
LAYER_02
 10
52.97729591836832
 20
56.5140306122446
 30
0.0
 40
1.682267857144332
  0
CIRCLE
  5
2B4
  8
LAYER_02
 10
50.42627551020269
 20
51.41198979591856
 30
0.0
 40
2.199591836735635
  0
CIRCLE
  5
2B5
  8
LAYER_02
 10
64.46096938775372
 20
51.41198979591855
 30
0.0
 40
1.054556122449867
  0
CIRCLE
  5
2B6
  8
LAYER_02
 10
74.66505102040902
 20
51.41198979591856
 30
0.0
 40
1.054556122449853
  0
CIRCLE
  5
2B7
  8
LAYER_02
 10
65.73647959183654
 20
53.96301020408488
 30
0.0
 40
1.682267857140687
  0
CIRCLE
  5
2B8
  8
LAYER_02
 10
72.11403061224337
 20
56.51403061224826
 30
0.0
 40
1.682267857140687
  0
CIRCLE
  5
2B9
  8
LAYER_02
 10
69.56301020408137
 20
51.41198979591856
 30
0.0
 40
2.199591836735635
  0
CIRCLE
  5
2BA
  8
LAYER_02
 10
7.151530612241915
 20
13.01811224489826
 30
0.0
 40
1.054556122449865
  0
CIRCLE
  5
2BB
  8
LAYER_02
 10
17.3556122448972
 20
13.01811224489826
 30
0.0
 40
1.054556122449867
  0
CIRCLE
  5
2BC
  8
LAYER_02
 10
8.427040816324734
 20
15.56913265306459
 30
0.0
 40
1.682267857140687
  0
CIRCLE
  5
2BD
  8
LAYER_02
 10
14.8045918367352
 20
18.12015306122409
 30
0.0
 40
1.682267857144323
  0
CIRCLE
  5
2BE
  8
LAYER_02
 10
12.25357142856956
 20
13.01811224489803
 30
0.0
 40
2.199591836735637
  0
CIRCLE
  5
2BF
  8
LAYER_02
 10
35.77448979591645
 20
13.13877551020438
 30
0.0
 40
1.054556122449867
  0
CIRCLE
  5
2C0
  8
LAYER_02
 10
45.97857142857174
 20
13.13877551020438
 30
0.0
 40
1.054556122449867
  0
CIRCLE
  5
2C1
  8
LAYER_02
 10
37.04999999999927
 20
15.68979591837071
 30
0.0
 40
1.682267857140687
  0
CIRCLE
  5
2C2
  8
LAYER_02
 10
43.4275510204061
 20
18.24081632653385
 30
0.0
 40
1.682267857140687
  0
CIRCLE
  5
2C3
  8
LAYER_02
 10
40.8765306122441
 20
13.13877551020415
 30
0.0
 40
2.199591836735635
  0
CIRCLE
  5
2C4
  8
LAYER_02
 10
64.39821428571304
 20
13.05637755102431
 30
0.0
 40
1.054556122446229
  0
CIRCLE
  5
2C5
  8
LAYER_02
 10
74.60229591836469
 20
13.05637755102067
 30
0.0
 40
1.054556122449867
  0
CIRCLE
  5
2C6
  8
LAYER_02
 10
65.67372448979586
 20
15.60739795918336
 30
0.0
 40
1.682267857144325
  0
CIRCLE
  5
2C7
  8
LAYER_02
 10
72.05127551020269
 20
18.15841836734672
 30
0.0
 40
1.682267857144325
  0
CIRCLE
  5
2C8
  8
LAYER_02
 10
69.50025510203704
 20
13.05637755102067
 30
0.0
 40
2.199591836735635
  0
CIRCLE
  5
2C9
  8
LAYER_02
 10
64.46096938775372
 20
70.29770408163292
 30
0.0
 40
1.054556122449867
  0
CIRCLE
  5
2CA
  8
LAYER_02
 10
74.66505102040902
 20
70.29770408163293
 30
0.0
 40
1.054556122449853
  0
CIRCLE
  5
2CB
  8
LAYER_02
 10
65.73647959183654
 20
72.84872448979924
 30
0.0
 40
1.682267857140687
  0
CIRCLE
  5
2CC
  8
LAYER_02
 10
72.11403061224337
 20
75.39974489796236
 30
0.0
 40
1.682267857140687
  0
CIRCLE
  5
2CD
  8
LAYER_02
 10
69.56301020408135
 20
70.29770408163292
 30
0.0
 40
2.19959183673565
  0
CIRCLE
  5
2CE
  8
LAYER_02
 10
45.32423469387504
 20
32.27551020408193
 30
0.0
 40
1.054556122449867
  0
CIRCLE
  5
2CF
  8
LAYER_02
 10
55.52831632653033
 20
32.27551020408193
 30
0.0
 40
1.054556122449867
  0
CIRCLE
  5
2D0
  8
LAYER_02
 10
46.59974489795787
 20
34.82653061224825
 30
0.0
 40
1.68226785714068
  0
CIRCLE
  5
2D1
  8
LAYER_02
 10
52.97729591836833
 20
37.37755102040776
 30
0.0
 40
1.682267857144325
  0
CIRCLE
  5
2D2
  8
LAYER_02
 10
50.42627551020269
 20
32.27551020408194
 30
0.0
 40
2.199591836735635
  0
CIRCLE
  5
2D3
  8
LAYER_02
 10
26.18775510204068
 20
32.27551020408193
 30
0.0
 40
1.054556122449867
  0
CIRCLE
  5
2D4
  8
LAYER_02
 10
36.39183673469233
 20
32.27551020408556
 30
0.0
 40
1.054556122446229
  0
CIRCLE
  5
2D5
  8
LAYER_02
 10
27.46326530611987
 20
34.8265306122446
 30
0.0
 40
1.682267857144325
  0
CIRCLE
  5
2D6
  8
LAYER_02
 10
33.84081632653033
 20
37.37755102041139
 30
0.0
 40
1.682267857140687
  0
CIRCLE
  5
2D7
  8
LAYER_02
 10
31.28979591836832
 20
32.27551020408193
 30
0.0
 40
2.199591836735642
  0
CIRCLE
  5
2D8
  8
LAYER_02
 10
64.46096938775372
 20
32.27551020408193
 30
0.0
 40
1.054556122449867
  0
CIRCLE
  5
2D9
  8
LAYER_02
 10
74.66505102040901
 20
32.27551020408193
 30
0.0
 40
1.054556122449867
  0
CIRCLE
  5
2DA
  8
LAYER_02
 10
65.73647959183654
 20
34.82653061224824
 30
0.0
 40
1.682267857140687
  0
CIRCLE
  5
2DB
  8
LAYER_02
 10
72.11403061224338
 20
37.3775510204114
 30
0.0
 40
1.682267857140673
  0
CIRCLE
  5
2DC
  8
LAYER_02
 10
69.56301020408137
 20
32.27551020408192
 30
0.0
 40
2.199591836735635
  0
CIRCLE
  5
2DD
  8
LAYER_02
 10
83.49719387755249
 20
89.43443877551046
 30
0.0
 40
1.054556122449867
  0
CIRCLE
  5
2DE
  8
LAYER_02
 10
93.70127551020049
 20
89.43443877551044
 30
0.0
 40
1.054556122449881
  0
CIRCLE
  5
2DF
  8
LAYER_02
 10
84.77270408163169
 20
91.98545918367316
 30
0.0
 40
1.682267857144311
  0
CIRCLE
  5
2E0
  8
LAYER_02
 10
91.15025510203849
 20
94.53647959183628
 30
0.0
 40
1.682267857144339
  0
CIRCLE
  5
2E1
  8
LAYER_02
 10
88.59923469387651
 20
89.43443877551411
 30
0.0
 40
2.199591836731983
  0
CIRCLE
  5
2E2
  8
LAYER_02
 10
83.4806122448972
 20
60.76250000000029
 30
0.0
 40
1.054556122449867
  0
CIRCLE
  5
2E3
  8
LAYER_02
 10
93.68469387755249
 20
60.76250000000029
 30
0.0
 40
1.054556122449867
  0
CIRCLE
  5
2E4
  8
LAYER_02
 10
84.75612244897638
 20
63.31352040816297
 30
0.0
 40
1.682267857144325
  0
CIRCLE
  5
2E5
  8
LAYER_02
 10
91.13367346938686
 20
65.86454081632976
 30
0.0
 40
1.682267857140673
  0
CIRCLE
  5
2E6
  8
LAYER_02
 10
88.58265306122485
 20
60.76250000000029
 30
0.0
 40
2.199591836735635
  0
CIRCLE
  5
2E7
  8
LAYER_02
 10
88.5992346938765
 20
22.59770408163652
 30
0.0
 40
2.199591836731997
  0
CIRCLE
  5
2E8
  8
LAYER_02
 10
91.15025510203851
 20
27.69974489795892
 30
0.0
 40
1.682267857144311
  0
CIRCLE
  5
2E9
  8
LAYER_02
 10
84.77270408163167
 20
25.14872448979555
 30
0.0
 40
1.682267857144325
  0
CIRCLE
  5
2EA
  8
LAYER_02
 10
93.7012755102005
 20
22.59770408163286
 30
0.0
 40
1.054556122449867
  0
CIRCLE
  5
2EB
  8
LAYER_02
 10
83.49719387755249
 20
22.59770408163287
 30
0.0
 40
1.054556122449867
  0
CIRCLE
  5
2EC
  8
LAYER_02
 10
45.32423469387503
 20
89.43443877551046
 30
0.0
 40
1.054556122449874
  0
CIRCLE
  5
2ED
  8
LAYER_02
 10
55.52831632653032
 20
89.43443877551046
 30
0.0
 40
1.054556122449874
  0
CIRCLE
  5
2EE
  8
LAYER_02
 10
46.59974489795787
 20
91.98545918367678
 30
0.0
 40
1.68226785714068
  0
CIRCLE
  5
2EF
  8
LAYER_02
 10
52.97729591836833
 20
94.53647959183628
 30
0.0
 40
1.682267857144325
  0
CIRCLE
  5
2F0
  8
LAYER_02
 10
50.4262755102027
 20
89.43443877551046
 30
0.0
 40
2.199591836735621
  0
CIRCLE
  5
2F1
  8
LAYER_02
 10
26.18775510204068
 20
89.43443877551046
 30
0.0
 40
1.054556122449874
  0
CIRCLE
  5
2F2
  8
LAYER_02
 10
36.39183673469233
 20
89.43443877551408
 30
0.0
 40
1.054556122446229
  0
CIRCLE
  5
2F3
  8
LAYER_02
 10
27.46326530611988
 20
91.98545918367313
 30
0.0
 40
1.682267857144311
  0
CIRCLE
  5
2F4
  8
LAYER_02
 10
33.84081632653033
 20
94.53647959183992
 30
0.0
 40
1.682267857140687
  0
CIRCLE
  5
2F5
  8
LAYER_02
 10
31.28979591836831
 20
89.43443877551046
 30
0.0
 40
2.19959183673565
  0
CIRCLE
  5
2F6
  8
LAYER_02
 10
45.32423469387506
 20
70.29770408163293
 30
0.0
 40
1.054556122449853
  0
CIRCLE
  5
2F7
  8
LAYER_02
 10
55.52831632653034
 20
70.29770408163293
 30
0.0
 40
1.054556122449853
  0
CIRCLE
  5
2F8
  8
LAYER_02
 10
46.59974489795787
 20
72.84872448979924
 30
0.0
 40
1.68226785714068
  0
CIRCLE
  5
2F9
  8
LAYER_02
 10
52.97729591836833
 20
75.39974489795875
 30
0.0
 40
1.682267857144318
  0
CIRCLE
  5
2FA
  8
LAYER_02
 10
50.4262755102027
 20
70.29770408163292
 30
0.0
 40
2.199591836735621
  0
CIRCLE
  5
2FB
  8
LAYER_02
 10
26.18775510204068
 20
70.29770408163292
 30
0.0
 40
1.054556122449867
  0
CIRCLE
  5
2FC
  8
LAYER_02
 10
36.39183673469233
 20
70.29770408163654
 30
0.0
 40
1.054556122446236
  0
CIRCLE
  5
2FD
  8
LAYER_02
 10
27.46326530611988
 20
72.84872448979559
 30
0.0
 40
1.682267857144311
  0
CIRCLE
  5
2FE
  8
LAYER_02
 10
33.84081632653033
 20
75.39974489796238
 30
0.0
 40
1.682267857140687
  0
CIRCLE
  5
2FF
  8
LAYER_02
 10
31.28979591836831
 20
70.29770408163292
 30
0.0
 40
2.19959183673565
  0
CIRCLE
  5
300
  8
LAYER_02
 10
93.4984693877559
 20
31.26096938775733
 30
0.0
 40
1.029948979590699
  0
POLYLINE
  5
301
  8
LAYER_02
 66
     1
 10
0.0
 20
0.0
 30
0.0
 70
     1
  0
VERTEX
  5
302
  8
LAYER_02
 10
86.87525510204068
 20
32.29107142857266
 30
0.0
  0
VERTEX
  5
303
  8
LAYER_02
 10
86.87525510204068
 20
30.23112244898063
 30
0.0
  0
VERTEX
  5
304
  8
LAYER_02
 10
84.81556122449183
 20
30.23112244898063
 30
0.0
  0
VERTEX
  5
305
  8
LAYER_02
 10
84.81556122449183
 20
32.29107142857266
 30
0.0
  0
SEQEND
  5
306
  8
LAYER_02
  0
CIRCLE
  5
307
  8
LAYER_02
 10
73.91377551020196
 20
21.46862244897831
 30
0.0
 40
1.029948979594337
  0
POLYLINE
  5
308
  8
LAYER_02
 66
     1
 10
0.0
 20
0.0
 30
0.0
 70
     1
  0
VERTEX
  5
309
  8
LAYER_02
 10
67.29081632652742
 20
22.49872448979706
 30
0.0
  0
VERTEX
  5
30A
  8
LAYER_02
 10
67.29081632652742
 20
20.43877551020525
 30
0.0
  0
VERTEX
  5
30B
  8
LAYER_02
 10
65.23086734693425
 20
20.43877551020525
 30
0.0
  0
VERTEX
  5
30C
  8
LAYER_02
 10
65.23086734693425
 20
22.49872448979706
 30
0.0
  0
SEQEND
  5
30D
  8
LAYER_02
  0
CIRCLE
  5
30E
  8
LAYER_02
 10
15.68775510204068
 20
28.12142857142727
 30
0.0
 40
1.029948979594341
  0
POLYLINE
  5
30F
  8
LAYER_02
 66
     1
 10
0.0
 20
0.0
 30
0.0
 70
     1
  0
VERTEX
  5
310
  8
LAYER_02
 10
9.064795918366144
 20
29.15127551020511
 30
0.0
  0
VERTEX
  5
311
  8
LAYER_02
 10
9.064795918366144
 20
27.09158163265421
 30
0.0
  0
VERTEX
  5
312
  8
LAYER_02
 10
7.004846938772971
 20
27.09158163265421
 30
0.0
  0
VERTEX
  5
313
  8
LAYER_02
 10
7.004846938772971
 20
29.15127551020511
 30
0.0
  0
SEQEND
  5
314
  8
LAYER_02
  0
CIRCLE
  5
315
  8
LAYER_02
 10
44.78801020407991
 20
21.46862244898194
 30
0.0
 40
1.029948979590699
  0
POLYLINE
  5
316
  8
LAYER_02
 66
     1
 10
0.0
 20
0.0
 30
0.0
 70
     1
  0
VERTEX
  5
317
  8
LAYER_02
 10
38.16479591836469
 20
22.49872448979706
 30
0.0
  0
VERTEX
  5
318
  8
LAYER_02
 10
38.16479591836469
 20
20.43877551020525
 30
0.0
  0
VERTEX
  5
319
  8
LAYER_02
 10
36.10510204081584
 20
20.43877551020525
 30
0.0
  0
VERTEX
  5
31A
  8
LAYER_02
 10
36.10510204081584
 20
22.49872448979706
 30
0.0
  0
SEQEND
  5
31B
  8
LAYER_02
  0
CIRCLE
  5
31C
  8
LAYER_02
 10
73.72295918367307
 20
40.80229591836954
 30
0.0
 40
1.029948979590714
  0
POLYLINE
  5
31D
  8
LAYER_02
 66
     1
 10
0.0
 20
0.0
 30
0.0
 70
     1
  0
VERTEX
  5
31E
  8
LAYER_02
 10
67.10000000000218
 20
41.83214285714395
 30
0.0
  0
VERTEX
  5
31F
  8
LAYER_02
 10
67.10000000000218
 20
39.77219387755214
 30
0.0
  0
VERTEX
  5
320
  8
LAYER_02
 10
65.04005102040901
 20
39.77219387755214
 30
0.0
  0
VERTEX
  5
321
  8
LAYER_02
 10
65.04005102040901
 20
41.83214285714395
 30
0.0
  0
SEQEND
  5
322
  8
LAYER_02
  0
CIRCLE
  5
323
  8
LAYER_02
 10
54.89158163265166
 20
40.80229591836589
 30
0.0
 40
1.02994897959433
  0
POLYLINE
  5
324
  8
LAYER_02
 66
     1
 10
0.0
 20
0.0
 30
0.0
 70
     1
  0
VERTEX
  5
325
  8
LAYER_02
 10
48.26862244897711
 20
41.83214285714395
 30
0.0
  0
VERTEX
  5
326
  8
LAYER_02
 10
48.26862244897711
 20
39.77219387755214
 30
0.0
  0
VERTEX
  5
327
  8
LAYER_02
 10
46.20867346938394
 20
39.77219387755214
 30
0.0
  0
VERTEX
  5
328
  8
LAYER_02
 10
46.20867346938394
 20
41.83214285714395
 30
0.0
  0
SEQEND
  5
329
  8
LAYER_02
  0
CIRCLE
  5
32A
  8
LAYER_02
 10
35.24668367346749
 20
40.80229591836952
 30
0.0
 40
1.029948979590699
  0
POLYLINE
  5
32B
  8
LAYER_02
 66
     1
 10
0.0
 20
0.0
 30
0.0
 70
     1
  0
VERTEX
  5
32C
  8
LAYER_02
 10
28.62372448979659
 20
41.83214285714395
 30
0.0
  0
VERTEX
  5
32D
  8
LAYER_02
 10
28.62372448979659
 20
39.77219387755214
 30
0.0
  0
VERTEX
  5
32E
  8
LAYER_02
 10
26.56377551020341
 20
39.77219387755214
 30
0.0
  0
VERTEX
  5
32F
  8
LAYER_02
 10
26.56377551020341
 20
41.83214285714395
 30
0.0
  0
SEQEND
  5
330
  8
LAYER_02
  0
CIRCLE
  5
331
  8
LAYER_02
 10
93.43826530612203
 20
70.1790816326518
 30
0.0
 40
1.029948979594351
  0
POLYLINE
  5
332
  8
LAYER_02
 66
     1
 10
0.0
 20
0.0
 30
0.0
 70
     1
  0
VERTEX
  5
333
  8
LAYER_02
 10
86.81505102041046
 20
71.20918367347055
 30
0.0
  0
VERTEX
  5
334
  8
LAYER_02
 10
86.81505102041046
 20
69.14923469387874
 30
0.0
  0
VERTEX
  5
335
  8
LAYER_02
 10
84.75510204081729
 20
69.14923469387874
 30
0.0
  0
VERTEX
  5
336
  8
LAYER_02
 10
84.75510204081729
 20
71.20918367347055
 30
0.0
  0
SEQEND
  5
337
  8
LAYER_02
  0
CIRCLE
  5
338
  8
LAYER_02
 10
73.60255102040537
 20
60.13571428571665
 30
0.0
 40
1.029948979590699
  0
POLYLINE
  5
339
  8
LAYER_02
 66
     1
 10
0.0
 20
0.0
 30
0.0
 70
     1
  0
VERTEX
  5
33A
  8
LAYER_02
 10
66.97933673469015
 20
61.16581632653175
 30
0.0
  0
VERTEX
  5
33B
  8
LAYER_02
 10
66.97933673469015
 20
59.10586734693995
 30
0.0
  0
VERTEX
  5
33C
  8
LAYER_02
 10
64.91938775510425
 20
59.10586734693995
 30
0.0
  0
VERTEX
  5
33D
  8
LAYER_02
 10
64.91938775510425
 20
61.16581632653175
 30
0.0
  0
SEQEND
  5
33E
  8
LAYER_02
  0
CIRCLE
  5
33F
  8
LAYER_02
 10
54.26887755101779
 20
60.13571428571664
 30
0.0
 40
1.029948979590699
  0
POLYLINE
  5
340
  8
LAYER_02
 66
     1
 10
0.0
 20
0.0
 30
0.0
 70
     1
  0
VERTEX
  5
341
  8
LAYER_02
 10
47.64591836734689
 20
61.16581632653175
 30
0.0
  0
VERTEX
  5
342
  8
LAYER_02
 10
47.64591836734689
 20
59.10586734693995
 30
0.0
  0
VERTEX
  5
343
  8
LAYER_02
 10
45.58596938775372
 20
59.10586734693995
 30
0.0
  0
VERTEX
  5
344
  8
LAYER_02
 10
45.58596938775372
 20
61.16581632653175
 30
0.0
  0
SEQEND
  5
345
  8
LAYER_02
  0
CIRCLE
  5
346
  8
LAYER_02
 10
35.18647959183727
 20
60.13571428571666
 30
0.0
 40
1.029948979590699
  0
POLYLINE
  5
347
  8
LAYER_02
 66
     1
 10
0.0
 20
0.0
 30
0.0
 70
     1
  0
VERTEX
  5
348
  8
LAYER_02
 10
28.56352040815909
 20
61.16581632653175
 30
0.0
  0
VERTEX
  5
349
  8
LAYER_02
 10
28.56352040815909
 20
59.10586734693995
 30
0.0
  0
VERTEX
  5
34A
  8
LAYER_02
 10
26.5035714285732
 20
59.10586734693995
 30
0.0
  0
VERTEX
  5
34B
  8
LAYER_02
 10
26.5035714285732
 20
61.16581632653175
 30
0.0
  0
SEQEND
  5
34C
  8
LAYER_02
  0
CIRCLE
  5
34D
  8
LAYER_02
 10
73.60255102040539
 20
79.72040816326763
 30
0.0
 40
1.029948979590685
  0
POLYLINE
  5
34E
  8
LAYER_02
 66
     1
 10
0.0
 20
0.0
 30
0.0
 70
     1
  0
VERTEX
  5
34F
  8
LAYER_02
 10
66.97933673469015
 20
80.75025510204183
 30
0.0
  0
VERTEX
  5
350
  8
LAYER_02
 10
66.97933673469015
 20
78.69030612245002
 30
0.0
  0
VERTEX
  5
351
  8
LAYER_02
 10
64.91938775510425
 20
78.69030612245002
 30
0.0
  0
VERTEX
  5
352
  8
LAYER_02
 10
64.91938775510425
 20
80.75025510204183
 30
0.0
  0
SEQEND
  5
353
  8
LAYER_02
  0
CIRCLE
  5
354
  8
LAYER_02
 10
54.52015306122485
 20
79.72040816326765
 30
0.0
 40
1.029948979590699
  0
POLYLINE
  5
355
  8
LAYER_02
 66
     1
 10
0.0
 20
0.0
 30
0.0
 70
     1
  0
VERTEX
  5
356
  8
LAYER_02
 10
47.89693877550962
 20
80.75025510204183
 30
0.0
  0
VERTEX
  5
357
  8
LAYER_02
 10
47.89693877550962
 20
78.69030612245002
 30
0.0
  0
VERTEX
  5
358
  8
LAYER_02
 10
45.83698979591645
 20
78.69030612245002
 30
0.0
  0
VERTEX
  5
359
  8
LAYER_02
 10
45.83698979591645
 20
80.75025510204183
 30
0.0
  0
SEQEND
  5
35A
  8
LAYER_02
  0
CIRCLE
  5
35B
  8
LAYER_02
 10
35.18647959183727
 20
79.72040816326763
 30
0.0
 40
1.029948979590699
  0
POLYLINE
  5
35C
  8
LAYER_02
 66
     1
 10
0.0
 20
0.0
 30
0.0
 70
     1
  0
VERTEX
  5
35D
  8
LAYER_02
 10
28.56352040815909
 20
80.75025510204183
 30
0.0
  0
VERTEX
  5
35E
  8
LAYER_02
 10
28.56352040815909
 20
78.69030612245002
 30
0.0
  0
VERTEX
  5
35F
  8
LAYER_02
 10
26.5035714285732
 20
78.69030612245002
 30
0.0
  0
VERTEX
  5
360
  8
LAYER_02
 10
26.5035714285732
 20
80.75025510204183
 30
0.0
  0
SEQEND
  5
361
  8
LAYER_02
  0
CIRCLE
  5
362
  8
LAYER_02
 10
93.18698979591862
 20
99.05382653061451
 30
0.0
 40
1.029948979590714
  0
POLYLINE
  5
363
  8
LAYER_02
 66
     1
 10
0.0
 20
0.0
 30
0.0
 70
     1
  0
VERTEX
  5
364
  8
LAYER_02
 10
86.56403061224046
 20
100.0839285714296
 30
0.0
  0
VERTEX
  5
365
  8
LAYER_02
 10
86.56403061224046
 20
98.02397959183783
 30
0.0
  0
VERTEX
  5
366
  8
LAYER_02
 10
84.50408163265456
 20
98.02397959183783
 30
0.0
  0
VERTEX
  5
367
  8
LAYER_02
 10
84.50408163265456
 20
100.0839285714296
 30
0.0
  0
SEQEND
  5
368
  8
LAYER_02
  0
CIRCLE
  5
369
  8
LAYER_02
 10
73.85357142856812
 20
99.05382653061453
 30
0.0
 40
1.029948979590685
  0
POLYLINE
  5
36A
  8
LAYER_02
 66
     1
 10
0.0
 20
0.0
 30
0.0
 70
     1
  0
VERTEX
  5
36B
  8
LAYER_02
 10
67.23035714285288
 20
100.0839285714296
 30
0.0
  0
VERTEX
  5
36C
  8
LAYER_02
 10
67.23035714285288
 20
98.02397959183783
 30
0.0
  0
VERTEX
  5
36D
  8
LAYER_02
 10
65.17066326530403
 20
98.02397959183783
 30
0.0
  0
VERTEX
  5
36E
  8
LAYER_02
 10
65.17066326530403
 20
100.0839285714296
 30
0.0
  0
SEQEND
  5
36F
  8
LAYER_02
  0
CIRCLE
  5
370
  8
LAYER_02
 10
54.52015306122485
 20
99.05382653061454
 30
0.0
 40
1.029948979590699
  0
POLYLINE
  5
371
  8
LAYER_02
 66
     1
 10
0.0
 20
0.0
 30
0.0
 70
     1
  0
VERTEX
  5
372
  8
LAYER_02
 10
47.89693877550962
 20
100.0839285714296
 30
0.0
  0
VERTEX
  5
373
  8
LAYER_02
 10
47.89693877550962
 20
98.02397959183783
 30
0.0
  0
VERTEX
  5
374
  8
LAYER_02
 10
45.83698979591645
 20
98.02397959183783
 30
0.0
  0
VERTEX
  5
375
  8
LAYER_02
 10
45.83698979591645
 20
100.0839285714296
 30
0.0
  0
SEQEND
  5
376
  8
LAYER_02
  0
CIRCLE
  5
377
  8
LAYER_02
 10
34.93545918367452
 20
99.3048469387777
 30
0.0
 40
1.029948979590714
  0
POLYLINE
  5
378
  8
LAYER_02
 66
     1
 10
0.0
 20
0.0
 30
0.0
 70
     1
  0
VERTEX
  5
379
  8
LAYER_02
 10
28.31224489795932
 20
100.3349489795931
 30
0.0
  0
VERTEX
  5
37A
  8
LAYER_02
 10
28.31224489795932
 20
98.27500000000101
 30
0.0
  0
VERTEX
  5
37B
  8
LAYER_02
 10
26.25255102041046
 20
98.27500000000101
 30
0.0
  0
VERTEX
  5
37C
  8
LAYER_02
 10
26.25255102041046
 20
100.3349489795931
 30
0.0
  0
SEQEND
  5
37D
  8
LAYER_02
  0
CIRCLE
  5
37E
  8
LAYER_02
 10
80.30841836734544
 20
34.58750000000214
 30
0.0
 40
2.203418367345876
  0
CIRCLE
  5
37F
  8
LAYER_02
 10
95.61454081632473
 20
34.58750000000239
 30
0.0
 40
1.731479591835523
  0
CIRCLE
  5
380
  8
LAYER_02
 10
80.30841836734544
 20
10.60790816326744
 30
0.0
 40
2.203418367345876
  0
CIRCLE
  5
381
  8
LAYER_02
 10
95.61454081632473
 20
10.60790816326769
 30
0.0
 40
1.731479591835523
  0
CIRCLE
  5
382
  8
LAYER_02
 10
80.30841836734544
 20
72.75229591836957
 30
0.0
 40
2.203418367345876
  0
CIRCLE
  5
383
  8
LAYER_02
 10
95.61454081632473
 20
72.75229591836981
 30
0.0
 40
1.731479591835523
  0
CIRCLE
  5
384
  8
LAYER_02
 10
80.30841836734544
 20
48.77270408163487
 30
0.0
 40
2.203418367345876
  0
CIRCLE
  5
385
  8
LAYER_02
 10
95.61454081632473
 20
48.77270408163487
 30
0.0
 40
1.731479591835523
  0
CIRCLE
  5
386
  8
LAYER_02
 10
52.86632653061316
 20
21.42959183673681
 30
0.0
 40
2.203418367345868
  0
CIRCLE
  5
387
  8
LAYER_02
 10
52.86632653061316
 20
6.123469387757517
 30
0.0
 40
1.731479591835516
  0
CIRCLE
  5
388
  8
LAYER_02
 10
28.88673469387505
 20
21.42959183673681
 30
0.0
 40
2.203418367345872
  0
CIRCLE
  5
389
  8
LAYER_02
 10
28.88673469387504
 20
6.123469387757506
 30
0.0
 40
1.731479591835523
  0
CIRCLE
  5
38A
  8
LAYER_02
 10
15.70229591836687
 20
23.52755102041034
 30
0.0
 40
1.029948979590703
  0
POLYLINE
  5
38B
  8
LAYER_02
 66
     1
 10
0.0
 20
0.0
 30
0.0
 70
     1
  0
VERTEX
  5
38C
  8
LAYER_02
 10
9.079336734695971
 20
24.55765306122568
 30
0.0
  0
VERTEX
  5
38D
  8
LAYER_02
 10
9.079336734695971
 20
22.49770408163387
 30
0.0
  0
VERTEX
  5
38E
  8
LAYER_02
 10
7.019387755102798
 20
22.49770408163387
 30
0.0
  0
VERTEX
  5
38F
  8
LAYER_02
 10
7.019387755102798
 20
24.55765306122568
 30
0.0
  0
SEQEND
  5
390
  8
LAYER_02
  0
CIRCLE
  5
391
  8
LAYER_02
 10
19.55459183673521
 20
100.4538265306121
 30
0.0
 40
1.080969387756326
  0
CIRCLE
  5
392
  8
LAYER_02
 10
4.248469387755904
 20
72.39260204081623
 30
0.0
 40
1.08096938775634
  0
CIRCLE
  5
393
  8
LAYER_02
 10
19.5545918367352
 20
97.90280612244898
 30
0.0
 40
1.08096938775634
  0
CIRCLE
  5
394
  8
LAYER_02
 10
19.5545918367352
 20
95.3517857142856
 30
0.0
 40
1.08096938775634
  0
CIRCLE
  5
395
  8
LAYER_02
 10
19.55459183673518
 20
92.80076530612223
 30
0.0
 40
1.080969387756355
  0
CIRCLE
  5
396
  8
LAYER_02
 10
19.5545918367352
 20
90.2497448979591
 30
0.0
 40
1.08096938775634
  0
CIRCLE
  5
397
  8
LAYER_02
 10
19.5545918367352
 20
87.69872448979574
 30
0.0
 40
1.08096938775634
  0
CIRCLE
  5
398
  8
LAYER_02
 10
19.55459183673521
 20
85.1477040816326
 30
0.0
 40
1.080969387756326
  0
CIRCLE
  5
399
  8
LAYER_02
 10
19.5545918367352
 20
82.59668367346923
 30
0.0
 40
1.08096938775634
  0
CIRCLE
  5
39A
  8
LAYER_02
 10
19.55459183673521
 20
80.04566326530609
 30
0.0
 40
1.080969387756326
  0
CIRCLE
  5
39B
  8
LAYER_02
 10
19.55459183673521
 20
77.49464285714272
 30
0.0
 40
1.080969387756333
  0
CIRCLE
  5
39C
  8
LAYER_02
 10
19.55459183673518
 20
74.94362244897958
 30
0.0
 40
1.080969387756355
  0
CIRCLE
  5
39D
  8
LAYER_02
 10
19.55459183673519
 20
72.39260204081621
 30
0.0
 40
1.080969387756348
  0
CIRCLE
  5
39E
  8
LAYER_02
 10
4.24846938775589
 20
74.94362244897958
 30
0.0
 40
1.080969387756355
  0
CIRCLE
  5
39F
  8
LAYER_02
 10
4.248469387755904
 20
77.49464285714272
 30
0.0
 40
1.08096938775634
  0
CIRCLE
  5
3A0
  8
LAYER_02
 10
4.248469387755918
 20
80.04566326530609
 30
0.0
 40
1.080969387756326
  0
CIRCLE
  5
3A1
  8
LAYER_02
 10
4.248469387755904
 20
82.59668367346923
 30
0.0
 40
1.08096938775634
  0
CIRCLE
  5
3A2
  8
LAYER_02
 10
4.248469387755904
 20
85.1477040816326
 30
0.0
 40
1.08096938775634
  0
CIRCLE
  5
3A3
  8
LAYER_02
 10
4.24846938775589
 20
87.69872448979574
 30
0.0
 40
1.080969387756355
  0
CIRCLE
  5
3A4
  8
LAYER_02
 10
4.248469387755904
 20
90.2497448979591
 30
0.0
 40
1.08096938775634
  0
CIRCLE
  5
3A5
  8
LAYER_02
 10
4.24846938775589
 20
92.80076530612223
 30
0.0
 40
1.080969387756355
  0
CIRCLE
  5
3A6
  8
LAYER_02
 10
4.248469387755904
 20
95.3517857142856
 30
0.0
 40
1.08096938775634
  0
CIRCLE
  5
3A7
  8
LAYER_02
 10
4.248469387755918
 20
97.90280612244898
 30
0.0
 40
1.080969387756326
  0
POLYLINE
  5
3A8
  8
LAYER_02
 66
     1
 10
0.0
 20
0.0
 30
0.0
 70
     1
  0
VERTEX
  5
3A9
  8
LAYER_02
 10
3.167346938771516
 20
101.5349489795929
 30
0.0
  0
VERTEX
  5
3AA
  8
LAYER_02
 10
5.329336734695971
 20
101.5349489795929
 30
0.0
  0
VERTEX
  5
3AB
  8
LAYER_02
 10
5.329336734695971
 20
99.37295918367455
 30
0.0
  0
VERTEX
  5
3AC
  8
LAYER_02
 10
3.167346938771516
 20
99.37295918367455
 30
0.0
  0
SEQEND
  5
3AD
  8
LAYER_02
  0
CIRCLE
  5
3AE
  8
LAYER_02
 10
124.2568877551021
 20
62.16862244898063
 30
0.0
 40
0.9023979591838724
  0
CIRCLE
  5
3AF
  8
LAYER_02
 10
121.7058673469364
 20
62.16862244898063
 30
0.0
 40
0.9023979591838582
  0
CIRCLE
  5
3B0
  8
LAYER_02
 10
119.1548469387744
 20
62.16862244898425
 30
0.0
 40
0.9023979591802345
  0
CIRCLE
  5
3B1
  8
LAYER_02
 10
116.6038265306124
 20
62.16862244898065
 30
0.0
 40
0.9023979591838582
  0
CIRCLE
  5
3B2
  8
LAYER_02
 10
7.281377551018522
 20
34.64974489796283
 30
0.0
 40
1.205206632650516
  0
CIRCLE
  5
3B3
  8
LAYER_02
 10
12.30331632652815
 20
34.6497448979592
 30
0.0
 40
1.205206632654154
  0
POLYLINE
  5
3B4
  8
LAYER_02
 66
     1
 10
0.0
 20
0.0
 30
0.0
 70
     1
  0
VERTEX
  5
3B5
  8
LAYER_02
 10
2.962755102042138
 20
43.48775510204202
 30
0.0
  0
VERTEX
  5
3B6
  8
LAYER_02
 10
5.373214285715221
 20
43.48775510204202
 30
0.0
  0
VERTEX
  5
3B7
  8
LAYER_02
 10
5.373214285715221
 20
39.87219387755205
 30
0.0
  0
VERTEX
  5
3B8
  8
LAYER_02
 10
2.962755102042138
 20
39.87219387755205
 30
0.0
  0
SEQEND
  5
3B9
  8
LAYER_02
  0
POLYLINE
  5
3BA
  8
LAYER_02
 66
     1
 10
0.0
 20
0.0
 30
0.0
 70
     1
  0
VERTEX
  5
3BB
  8
LAYER_02
 10
14.21147959183509
 20
43.48775510204202
 30
0.0
  0
VERTEX
  5
3BC
  8
LAYER_02
 10
16.62193877550817
 20
43.48775510204202
 30
0.0
  0
VERTEX
  5
3BD
  8
LAYER_02
 10
16.62193877550817
 20
39.87219387755205
 30
0.0
  0
VERTEX
  5
3BE
  8
LAYER_02
 10
14.21147959183509
 20
39.87219387755205
 30
0.0
  0
SEQEND
  5
3BF
  8
LAYER_02
  0
CIRCLE
  5
3C0
  8
LAYER_02
 10
7.281377551018524
 20
49.21250000000374
 30
0.0
 40
1.205206632650514
  0
CIRCLE
  5
3C1
  8
LAYER_02
 10
9.792346938775147
 20
49.21250000000011
 30
0.0
 40
1.205206632654161
  0
POLYLINE
  5
3C2
  8
LAYER_02
 66
     1
 10
0.0
 20
0.0
 30
0.0
 70
     1
  0
VERTEX
  5
3C3
  8
LAYER_02
 10
11.09795918366945
 20
50.41785714285835
 30
0.0
  0
VERTEX
  5
3C4
  8
LAYER_02
 10
13.50841836734253
 20
50.41785714285835
 30
0.0
  0
VERTEX
  5
3C5
  8
LAYER_02
 10
13.50841836734253
 20
48.00739795918481
 30
0.0
  0
VERTEX
  5
3C6
  8
LAYER_02
 10
11.09795918366945
 20
48.00739795918481
 30
0.0
  0
SEQEND
  5
3C7
  8
LAYER_02
  0
ENDSEC
  0
EOF
